<svg xmlns="http://www.w3.org/2000/svg" width="26.686" height="27.465" viewBox="0 0 26.686 27.465">
  <g id="Icon_material-round-mark-unread-chat-alt" data-name="Icon material-round-mark-unread-chat-alt" transform="translate(-3)">
    <path id="Pfad_36" data-name="Pfad 36" d="M32.006,4a4,4,0,1,1-4-4,4,4,0,0,1,4,4Z" transform="translate(-2.32 0)" fill="#fff"/>
    <path id="Pfad_37" data-name="Pfad 37" d="M9.671,11.006a1.334,1.334,0,1,1,0-2.669H20.386A6.546,6.546,0,0,1,19.158,3H5.682A2.669,2.669,0,0,0,3.013,5.669L3,26.457a1.338,1.338,0,0,0,2.282.947l3.056-3.056h18.68a2.676,2.676,0,0,0,2.669-2.669V9.631a6.571,6.571,0,0,1-4,1.374Zm8.006,8.006H9.671a1.334,1.334,0,1,1,0-2.669h8.006a1.334,1.334,0,1,1,0,2.669Zm5.337-4H9.671a1.334,1.334,0,1,1,0-2.669H23.014a1.334,1.334,0,0,1,0,2.669Z" transform="translate(0 -0.331)" fill="#fff"/>
  </g>
</svg>
