<svg xmlns="http://www.w3.org/2000/svg" width="11.831" height="11.831" viewBox="0 0 11.831 11.831">
  <path id="Icon_awesome-phone-alt" data-name="Icon awesome-phone-alt" d="M11.493,8.36,8.905,7.251a.555.555,0,0,0-.647.159l-1.146,1.4A8.565,8.565,0,0,1,3.018,4.717l1.4-1.146a.553.553,0,0,0,.159-.647L3.468.336A.558.558,0,0,0,2.833.014L.43.569a.555.555,0,0,0-.43.54A10.72,10.72,0,0,0,10.722,11.831a.555.555,0,0,0,.541-.43L11.817,9A.561.561,0,0,0,11.493,8.36Z" transform="translate(0 0)" fill="#0066b3"/>
</svg>
