<svg xmlns="http://www.w3.org/2000/svg" width="26.828" height="23.849" viewBox="0 0 26.828 23.849">
  <path id="Icon_fa-solid-house-chimney" data-name="Icon fa-solid-house-chimney" d="M25.331,13.4a1.5,1.5,0,0,0,1.491-1.5,1.276,1.276,0,0,0-.512-1.118L23.849,8.617V2.981a1.489,1.489,0,0,0-1.491-1.491H20.868a1.489,1.489,0,0,0-1.491,1.491v1.71L14.417.326A1.547,1.547,0,0,0,13.439,0a1.344,1.344,0,0,0-1.025.373L.466,10.783A1.514,1.514,0,0,0,0,11.9a1.475,1.475,0,0,0,1.491,1.5H2.981v3.247a1.178,1.178,0,0,0,0,.13v5.212A1.863,1.863,0,0,0,4.84,23.849h.745c.056,0,.112,0,.168-.009s.14.009.21.009H8.571a1.863,1.863,0,0,0,1.863-1.863v-4.1A1.489,1.489,0,0,1,11.925,16.4h2.981A1.489,1.489,0,0,1,16.4,17.887v4.1a1.863,1.863,0,0,0,1.863,1.863h2.632c.065,0,.13,0,.2,0s.1,0,.154,0h.745a1.863,1.863,0,0,0,1.863-1.863v-.755a3.282,3.282,0,0,0,.023-.377l-.033-7.462h1.491Z" fill="#fff"/>
</svg>
