<svg xmlns="http://www.w3.org/2000/svg" width="25.226" height="25.226" viewBox="0 0 25.226 25.226">
  <path id="Icon_fa-solid-phone" data-name="Icon fa-solid-phone" d="M8.124,1.211A1.965,1.965,0,0,0,5.789.068L1.453,1.251A1.976,1.976,0,0,0,0,3.153,22.073,22.073,0,0,0,22.071,25.224a1.976,1.976,0,0,0,1.9-1.453l1.182-4.335A1.965,1.965,0,0,0,24.013,17.1l-4.73-1.971A1.964,1.964,0,0,0,17,15.7l-1.99,2.429a16.651,16.651,0,0,1-7.917-7.917L9.523,8.227a1.966,1.966,0,0,0,.571-2.281L8.124,1.216Z" transform="translate(0 0.002)" fill="#fff"/>
</svg>
