<svg xmlns="http://www.w3.org/2000/svg" width="12.613" height="12.613" viewBox="0 0 12.613 12.613">
  <path id="Icon_ion-calendar-clear" data-name="Icon ion-calendar-clear" d="M14.863,4.953a1.8,1.8,0,0,0-1.8-1.8h-.45V2.713a.459.459,0,0,0-.429-.463.45.45,0,0,0-.472.45v.45H5.4V2.713a.459.459,0,0,0-.429-.463A.45.45,0,0,0,4.5,2.7v.45h-.45a1.8,1.8,0,0,0-1.8,1.8v.338a.113.113,0,0,0,.113.113H14.751a.113.113,0,0,0,.113-.113ZM2.25,13.061a1.8,1.8,0,0,0,1.8,1.8h9.01a1.8,1.8,0,0,0,1.8-1.8V6.417a.113.113,0,0,0-.113-.113H2.363a.113.113,0,0,0-.113.113Z" transform="translate(-2.25 -2.25)" fill="#0066b3"/>
</svg>
