<svg xmlns="http://www.w3.org/2000/svg" width="26.686" height="26.686" viewBox="0 0 26.686 26.686">
  <path id="Icon_ion-calendar-clear" data-name="Icon ion-calendar-clear" d="M28.936,7.968a3.812,3.812,0,0,0-3.812-3.812h-.953V3.23a.972.972,0,0,0-.907-.979.953.953,0,0,0-1,.952v.953H8.921V3.23a.972.972,0,0,0-.907-.979.953.953,0,0,0-1,.952v.953H6.062A3.812,3.812,0,0,0,2.25,7.968v.715a.238.238,0,0,0,.238.238H28.7a.238.238,0,0,0,.238-.238ZM2.25,25.124a3.812,3.812,0,0,0,3.812,3.812H25.124a3.812,3.812,0,0,0,3.812-3.812V11.066a.238.238,0,0,0-.238-.238H2.488a.238.238,0,0,0-.238.238Z" transform="translate(-2.25 -2.25)" fill="#fff"/>
</svg>
