<svg id="Gruppe_526" data-name="Gruppe 526" xmlns="http://www.w3.org/2000/svg" xmlns:xlink="http://www.w3.org/1999/xlink" width="66.289" height="79.943" viewBox="0 0 66.289 79.943">
  <defs>
    <clipPath id="clip-path">
      <rect id="Rechteck_216" data-name="Rechteck 216" width="66.289" height="79.942" fill="#ec6608"/>
    </clipPath>
  </defs>
  <g id="Gruppe_459" data-name="Gruppe 459" clip-path="url(#clip-path)">
    <path id="Pfad_307" data-name="Pfad 307" d="M141.644,127.334c-3.117,0-6.233-.03-9.349.016-1.133.017-1.545-.389-1.543-1.539,0-2,.005-3.92,2.322-4.786.606-.226.365-.832.376-1.279.074-3.2-.169-6.409.394-9.592a22.4,22.4,0,0,1,4.081-9.6c3.3-4.439,6.639-8.845,9.952-13.274a3,3,0,0,1,1.86-1.375c1-.138,1-.7.97-1.464q-.268-7.569-.477-15.139c-.069-2.566,1.248-4.225,3.467-4.473,2.107-.236,3.762,1.135,4.245,3.589,1.44,7.319,2.887,14.636,4.27,21.965a14.673,14.673,0,0,1-1.89,8.375c-2.743,3.919-5.438,7.873-8.273,11.724a11.482,11.482,0,0,0-2.333,6.666,11.977,11.977,0,0,0,.062,2.122c.109.981.176,1.731,1.3,2.191a2.775,2.775,0,0,1,1.515,2.729c.009.571-.038,1.145.014,1.711.1,1.118-.428,1.459-1.476,1.447-3.16-.036-6.321-.013-9.481-.013m.013-6.453h6.812s.032-.005-.108-3.075a12.5,12.5,0,0,1,2.709-8.564c2.035-2.637,3.668-5.6,5.821-8.127,3.677-4.315,4.6-8.913,3.17-14.427-1.538-5.933-2.415-12.037-3.6-18.063-.3-1.545-1.3-2.407-2.563-2.309a2.31,2.31,0,0,0-2.154,2.519c.132,5.441.307,10.881.463,16.321a1.415,1.415,0,0,0,.494,1.141c1.863,1.645,2.082,3.126.8,5.2q-3.144,5.1-6.316,10.173a5.356,5.356,0,0,1-.529.75.654.654,0,0,1-.838.149.662.662,0,0,1-.342-.889,5.668,5.668,0,0,1,.5-.918c2.08-3.355,4.171-6.7,6.244-10.062.816-1.322.68-2.462-.323-3.129-1.026-.682-2.055-.386-3.011.884q-4.789,6.363-9.57,12.732a22.154,22.154,0,0,0-3.425,6.773c-1.261,4.03-.856,8.173-.927,12.286-.012.68-.012.634-.012.634,1.931,0,4.764,0,6.7,0m-.006,4.933h7.771c1.7,0,1.964-.319,1.6-1.989-.241-1.1-1.023-1.421-2.061-1.418-4.83.012-9.659,0-14.489.005a4,4,0,0,0-.657.026c-1.149.193-1.513,1.088-1.518,2.646,0,.859,1.048.685,1.584.7,2.588.07,5.18.031,7.77.031" transform="translate(-96.192 -47.673)" fill="#ec6608"/>
    <path id="Pfad_308" data-name="Pfad 308" d="M131.495,126.879a1.783,1.783,0,0,1-1.317-.406,1.865,1.865,0,0,1-.427-1.4c0-2.017.005-4.1,2.494-5.033.243-.091.267-.236.224-.686a3.009,3.009,0,0,1-.02-.352c.021-.9.016-1.817.012-2.7a38.653,38.653,0,0,1,.386-6.928,22.766,22.766,0,0,1,4.129-9.713c1.982-2.668,4.013-5.368,5.977-7.98q1.99-2.645,3.975-5.294a3.236,3.236,0,0,1,2.035-1.479c.743-.1.771-.386.742-1.193-.192-5.427-.348-10.379-.477-15.142-.073-2.7,1.311-4.476,3.7-4.743,2.25-.252,4.03,1.24,4.534,3.8l.469,2.385c1.263,6.415,2.568,13.048,3.8,19.582l0,.045a14.964,14.964,0,0,1-1.922,8.505l-.016.025q-1.048,1.5-2.089,3c-2,2.88-4.072,5.858-6.187,8.731a11.253,11.253,0,0,0-2.282,6.523,11.824,11.824,0,0,0,.061,2.079l.005.045c.107.959.17,1.538,1.129,1.931a2.987,2.987,0,0,1,1.679,2.969c0,.21,0,.421-.005.631a9.511,9.511,0,0,0,.017,1.061,1.6,1.6,0,0,1-.318,1.294,1.809,1.809,0,0,1-1.425.442c-2.276-.026-4.591-.021-6.83-.016q-1.324,0-2.647,0t-2.649-.005c-2.195-.006-4.465-.012-6.7.021h-.068m21.928-62.551a3.922,3.922,0,0,0-.434.024c-2.089.233-3.3,1.8-3.232,4.2.129,4.761.285,9.712.477,15.137.026.733.055,1.563-1.2,1.736a2.784,2.784,0,0,0-1.684,1.272q-1.983,2.651-3.976,5.3c-1.964,2.611-3.995,5.31-5.976,7.977a22.241,22.241,0,0,0-4.032,9.49,38.234,38.234,0,0,0-.378,6.833c0,.891.009,1.812-.012,2.719a2.618,2.618,0,0,0,.018.29c.037.392.094.985-.565,1.231-2.146.8-2.148,2.533-2.15,4.539a1.41,1.41,0,0,0,.27,1.022,1.362,1.362,0,0,0,1.005.253c2.235-.033,4.508-.027,6.705-.021q2.647.008,5.294,0c2.241,0,4.558-.009,6.838.016a1.36,1.36,0,0,0,1.03-.271,1.132,1.132,0,0,0,.18-.887,10.059,10.059,0,0,1-.02-1.119c0-.2.008-.408.005-.612a2.58,2.58,0,0,0-1.351-2.489c-1.249-.513-1.344-1.369-1.454-2.362l-.005-.045a12.29,12.29,0,0,1-.064-2.166,11.744,11.744,0,0,1,2.384-6.809c2.111-2.868,4.179-5.842,6.179-8.719q1.039-1.5,2.082-2.988a14.49,14.49,0,0,0,1.851-8.209c-1.231-6.525-2.535-13.149-3.8-19.556l-.469-2.385c-.42-2.134-1.751-3.4-3.523-3.4m-16.561,61.024c-1.237,0-2.487-.009-3.723-.042-.077,0-.163,0-.257,0a1.825,1.825,0,0,1-1.334-.307.882.882,0,0,1-.251-.66c0-1.293.214-2.65,1.738-2.906a3.254,3.254,0,0,1,.582-.03H138.1q5.064,0,10.128-.006h.012a2.034,2.034,0,0,1,2.307,1.626c.186.847.238,1.451-.076,1.842s-.913.468-1.78.468h-7.771q-1.013,0-2.026.005c-.67,0-1.347.005-2.028.005m-3.79-.571h.081c1.909.051,3.854.044,5.735.036q1.014,0,2.028-.005h7.771c.818,0,1.214-.079,1.369-.271s.145-.608-.028-1.4c-.186-.848-.722-1.211-1.79-1.211h-.012q-5.065.013-10.129.006h-4.483a2.936,2.936,0,0,0-.49.022c-.929.156-1.292.825-1.3,2.386a.351.351,0,0,0,.093.281c.177.173.625.163.952.156l.2,0m14.682-4.372h-13.53l-.262,0,.005-.527c0-.09,0-.211.007-.375.016-.912.008-1.842,0-2.742a30.892,30.892,0,0,1,.939-9.619,22.268,22.268,0,0,1,3.466-6.853l2.041-2.716q3.763-5.009,7.53-10.016c1.03-1.369,2.227-1.7,3.369-.945s1.284,2.057.4,3.488q-1.952,3.165-3.919,6.32-1.163,1.871-2.325,3.743l-.053.086a4.853,4.853,0,0,0-.427.788.4.4,0,0,0,.217.559.392.392,0,0,0,.519-.09,5.133,5.133,0,0,0,.5-.714l1.166-1.873c1.691-2.718,3.44-5.528,5.149-8.3,1.221-1.98,1.017-3.3-.754-4.861a1.673,1.673,0,0,1-.583-1.332q-.071-2.474-.145-4.948c-.111-3.728-.225-7.583-.317-11.375a2.583,2.583,0,0,1,2.4-2.789c1.427-.11,2.516.855,2.843,2.521.373,1.9.722,3.847,1.059,5.726.73,4.066,1.484,8.271,2.534,12.322,1.475,5.692.451,10.352-3.225,14.665a49.163,49.163,0,0,0-3.311,4.557c-.794,1.186-1.616,2.412-2.5,3.56a12.3,12.3,0,0,0-2.654,8.39c.151,3.306.151,3.306-.116,3.348Zm-6.832-.529h6.549c-.006-.32-.03-1.068-.109-2.8a12.806,12.806,0,0,1,2.764-8.737c.875-1.135,1.691-2.353,2.481-3.532a49.632,49.632,0,0,1,3.348-4.605c3.554-4.171,4.544-8.679,3.116-14.19-1.055-4.07-1.811-8.285-2.543-12.361-.336-1.877-.685-3.817-1.057-5.717-.275-1.4-1.131-2.186-2.283-2.1a2.05,2.05,0,0,0-1.91,2.249c.092,3.791.207,7.645.317,11.372q.074,2.474.145,4.948a1.152,1.152,0,0,0,.4.951c1.963,1.733,2.21,3.336.854,5.535-1.71,2.771-3.459,5.582-5.151,8.3l-1.166,1.873a5.626,5.626,0,0,1-.556.786.912.912,0,0,1-1.156.207.922.922,0,0,1-.467-1.218,5.25,5.25,0,0,1,.472-.878l.053-.085q1.161-1.873,2.325-3.743,1.963-3.157,3.918-6.318c.426-.691.961-1.969-.244-2.77-.912-.607-1.78-.337-2.654.823q-3.768,5.005-7.53,10.016l-2.041,2.716a21.75,21.75,0,0,0-3.384,6.693,30.491,30.491,0,0,0-.915,9.456c.008.9.015,1.837,0,2.755l-.007.366h6.426Z" transform="translate(-95.456 -46.937)" fill="#ec6608"/>
    <path id="Pfad_309" data-name="Pfad 309" d="M21.649,127.343c-3.116,0-6.233-.029-9.349.016-1.116.016-1.55-.349-1.555-1.519-.008-2.062.024-4.008,2.415-4.856.411-.146.273-.605.277-.938.013-1.142-.033-2.285.014-3.424a8.609,8.609,0,0,0-1.732-5.534c-2.862-4-5.653-8.042-8.5-12.049a11.318,11.318,0,0,1-1.993-9.105c1.413-7.189,2.8-14.385,4.208-21.574.465-2.365,2.1-3.722,4.169-3.528,2.225.209,3.6,1.883,3.53,4.417q-.2,7.636-.475,15.271c-.024.709-.041,1.245.912,1.373a2.978,2.978,0,0,1,1.879,1.348c3.339,4.463,6.72,8.9,10.029,13.38a22.979,22.979,0,0,1,4.42,13.807c.016,1.8.021,3.6,0,5.4a1.272,1.272,0,0,0,.808,1.42c1.664.783,2.608,3.9,1.8,5.557-.289.592-.849.538-1.374.539q-4.741,0-9.481,0M11.625,76.954c0-2.676.007-5.353,0-8.029a2.368,2.368,0,0,0-2.217-2.6c-1.338-.073-2.227.837-2.572,2.62C5.474,75.964,4.127,82.986,2.742,90a10.1,10.1,0,0,0,1.749,8.231q3,4.164,5.908,8.395c3.781,5.524,4.987,5.549,4.562,13.347a4.36,4.36,0,0,0-.007.928c3.774-.025,9.7-.035,13.47.006,0,0,.012-.222-.016-1.1-.063-1.929.006-3.863-.03-5.793a21.568,21.568,0,0,0-4.292-12.756c-1.622-2.184-3.266-4.351-4.9-6.526L14.2,88.1a1.889,1.889,0,0,0-2.068-.8,1.925,1.925,0,0,0-1.509,1.482,2.4,2.4,0,0,0,.531,1.966q3.227,5.2,6.456,10.4c.288.464.589.982-.014,1.38s-.964-.09-1.251-.552c-2.269-3.65-4.561-7.287-6.785-10.965a3.328,3.328,0,0,1,.827-4.483,2.332,2.332,0,0,0,1.053-1.758c-.008-2.633.132-5.479.183-7.811m10.069,48.869h7.771c1.671,0,1.877-.237,1.566-1.9-.219-1.164-1.022-1.517-2.12-1.513-4.83.015-9.659.006-14.489.009a3.392,3.392,0,0,0-.786.053c-1.047.252-1.475,1.187-1.343,2.655.106,1.179.98.655,1.5.666,2.633.056,5.268.026,7.9.026" transform="translate(-0.725 -47.681)" fill="#ec6608"/>
    <path id="Pfad_310" data-name="Pfad 310" d="M11.507,126.888a1.778,1.778,0,0,1-1.322-.4,1.852,1.852,0,0,1-.429-1.382c-.008-1.96-.017-4.181,2.591-5.106.108-.038.135-.1.11-.457-.006-.082-.011-.162-.01-.236.005-.445,0-.89,0-1.335-.006-.686-.012-1.4.017-2.1a8.357,8.357,0,0,0-1.683-5.369c-1.622-2.265-3.248-4.585-4.821-6.827-1.2-1.714-2.445-3.487-3.677-5.223A11.654,11.654,0,0,1,.243,89.146Q1.307,83.73,2.356,78.311,3.4,72.941,4.451,67.572c.488-2.481,2.235-3.947,4.453-3.74,2.4.225,3.84,2.021,3.769,4.687-.137,5.163-.31,10.392-.475,15.273-.024.711-.034,1.005.682,1.1a3.278,3.278,0,0,1,2.056,1.452q1.83,2.445,3.671,4.883c2.093,2.778,4.258,5.651,6.359,8.5a23.333,23.333,0,0,1,4.472,13.961c.018,2.118.017,3.836,0,5.406-.008.587.055.894.657,1.177a4.107,4.107,0,0,1,1.9,2.423,4.768,4.768,0,0,1,.02,3.49,1.4,1.4,0,0,1-1.49.687H30.4q-3.418,0-6.835,0H20.924c-.889-.007-1.768,0-2.652,0-2.194-.005-4.463-.012-6.693.021h-.072M8.485,64.341c-1.775,0-3.1,1.247-3.515,3.333Q3.915,73.042,2.875,78.412,1.822,83.831.761,89.248a11,11,0,0,0,1.949,8.9c1.233,1.737,2.477,3.511,3.679,5.226,1.572,2.242,3.2,4.56,4.818,6.823a8.866,8.866,0,0,1,1.781,5.7c-.028.687-.022,1.39-.016,2.071,0,.449.008.9,0,1.346,0,.061,0,.126.009.193.021.3.056.809-.461.992-2.254.8-2.247,2.648-2.239,4.606a1.4,1.4,0,0,0,.27,1.006,1.4,1.4,0,0,0,1.016.25c2.235-.032,4.506-.026,6.7-.021q1.316,0,2.632,0H23.57q3.418,0,6.835,0h.125c.524.006.827-.012,1.012-.391a4.237,4.237,0,0,0-.044-3.082,3.641,3.641,0,0,0-1.63-2.12,1.532,1.532,0,0,1-.96-1.662c.02-1.566.021-3.28,0-5.395a22.815,22.815,0,0,0-4.369-13.652c-2.1-2.845-4.263-5.717-6.356-8.494q-1.838-2.44-3.672-4.884a2.652,2.652,0,0,0-1.7-1.245c-1.191-.16-1.164-.948-1.141-1.644.166-4.88.338-10.107.475-15.269.063-2.361-1.2-3.95-3.29-4.147q-.188-.017-.37-.017m3.736,61.091a.86.86,0,0,1-.536-.162,1.13,1.13,0,0,1-.379-.851c-.186-2.075.737-2.742,1.545-2.936a3.235,3.235,0,0,1,.77-.061h4.908q4.829,0,9.658-.008c1.373,0,2.161.561,2.38,1.729.166.884.2,1.431-.1,1.787s-.835.422-1.73.422H20.969c-.686.007-1.372,0-2.058,0-1.917.006-3.9.012-5.85-.03a1.772,1.772,0,0,0-.348.046,2.689,2.689,0,0,1-.492.06m1.325-3.481a2.491,2.491,0,0,0-.572.046c-.88.212-1.264,1.01-1.142,2.375a.687.687,0,0,0,.172.477c.125.095.373.048.612,0a2.262,2.262,0,0,1,.456-.055c1.944.041,3.924.036,5.837.03.686,0,1.363-.006,2.06,0H28.74c.68,0,1.165-.039,1.323-.231s.109-.68-.018-1.352c-.171-.909-.723-1.3-1.844-1.3h-.016q-4.83.015-9.66.008H13.546m14.4-1.512-.253,0c-3.742-.04-9.6-.031-13.465-.006h-.2l-.057-.189a5.244,5.244,0,0,1,0-1.018c.35-6.431-.394-7.457-2.862-10.854-.485-.668-1.035-1.425-1.654-2.329-1.8-2.627-3.73-5.372-5.9-8.39a10.313,10.313,0,0,1-1.794-8.437C2.787,84.006,3.811,78.706,4.8,73.581q.524-2.711,1.049-5.422c.37-1.907,1.382-2.912,2.846-2.834a2.638,2.638,0,0,1,2.467,2.863q.01,2.83,0,5.661v2.375c-.017.792-.045,1.644-.073,2.526-.056,1.743-.114,3.544-.109,5.279A2.541,2.541,0,0,1,9.828,86a3.068,3.068,0,0,0-.764,4.139c1.675,2.77,3.418,5.564,5.1,8.265q.841,1.348,1.68,2.7c.158.253.342.528.539.571a.46.46,0,0,0,.343-.1c.345-.228.286-.454-.065-1.02l-6.456-10.4a2.633,2.633,0,0,1-.561-2.176,2.184,2.184,0,0,1,1.705-1.669,2.148,2.148,0,0,1,2.337.9l4.983,6.629q.744.99,1.49,1.979c1.121,1.488,2.281,3.026,3.411,4.548a21.911,21.911,0,0,1,4.344,12.909c.016.863.012,1.739.007,2.586-.006,1.051-.011,2.138.023,3.2.029.882.016,1.116.016,1.126Zm-6.771-.559c2.248,0,4.472.007,6.259.025,0-.166-.005-.428-.019-.827-.035-1.075-.029-2.167-.024-3.224,0-.844.009-1.717-.007-2.573a21.392,21.392,0,0,0-4.24-12.6c-1.129-1.52-2.288-3.057-3.409-4.544q-.746-.99-1.491-1.98l-4.983-6.629a1.619,1.619,0,0,0-1.8-.7,1.669,1.669,0,0,0-1.313,1.3,2.165,2.165,0,0,0,.5,1.755l6.456,10.4c.258.416.739,1.191-.093,1.74a.961.961,0,0,1-.746.175,1.539,1.539,0,0,1-.875-.808q-.839-1.349-1.68-2.7c-1.686-2.7-3.43-5.5-5.107-8.271a3.58,3.58,0,0,1,.89-4.828,2.052,2.052,0,0,0,.952-1.549c-.005-1.744.053-3.551.11-5.3.028-.879.056-1.727.073-2.517V73.849q0-2.829,0-5.658a2.112,2.112,0,0,0-1.967-2.337c-1.205-.063-1.976.744-2.3,2.407q-.525,2.711-1.049,5.422c-.99,5.125-2.015,10.425-3.043,15.635a9.81,9.81,0,0,0,1.7,8.025c2.177,3.022,4.111,5.769,5.912,8.4.615.9,1.163,1.653,1.646,2.318,2.486,3.421,3.323,4.574,2.962,11.193-.017.313-.021.517-.021.648,1.936-.012,4.33-.02,6.7-.02" transform="translate(0 -46.946)" fill="#ec6608"/>
    <path id="Pfad_311" data-name="Pfad 311" d="M148.006,287.2c-.043.435-.239.738-.717.726a.653.653,0,0,1-.7-.736.634.634,0,0,1,.644-.662.672.672,0,0,1,.772.671" transform="translate(-107.843 -210.795)" fill="#ec6608"/>
    <path id="Pfad_312" data-name="Pfad 312" d="M146.581,287.458h-.034a.912.912,0,0,1-.957-1.006.892.892,0,0,1,.891-.919.936.936,0,0,1,1.052.9l0,.029,0,.029a.932.932,0,0,1-.953.965m0-1.4-.064,0a.373.373,0,0,0-.4.4.4.4,0,0,0,.442.465c.191.006.393-.027.444-.458-.053-.347-.236-.414-.424-.414" transform="translate(-107.108 -210.06)" fill="#ec6608"/>
    <path id="Pfad_313" data-name="Pfad 313" d="M100.2,287.945a.666.666,0,0,1-.729-.727.625.625,0,0,1,.627-.675.648.648,0,0,1,.777.651.665.665,0,0,1-.676.751" transform="translate(-73.181 -210.803)" fill="#ec6608"/>
    <path id="Pfad_314" data-name="Pfad 314" d="M99.479,287.474h-.018a.923.923,0,0,1-.987-.991.889.889,0,0,1,.874-.939,1.013,1.013,0,0,1,.758.221.953.953,0,0,1,.3.678.923.923,0,0,1-.911,1.03Zm-.033-1.405-.062,0a.366.366,0,0,0-.38.412c0,.306.14.449.454.462.4-.05.435-.277.423-.47a.437.437,0,0,0-.123-.313.473.473,0,0,0-.311-.092" transform="translate(-72.447 -210.067)" fill="#ec6608"/>
    <path id="Pfad_315" data-name="Pfad 315" d="M101.695,18.026a8.513,8.513,0,1,1,8.513-8.513,8.522,8.522,0,0,1-8.513,8.513m0-15.7a7.191,7.191,0,1,0,7.191,7.191,7.2,7.2,0,0,0-7.191-7.191" transform="translate(-68.553 -0.736)" fill="#ec6608"/>
    <path id="Pfad_316" data-name="Pfad 316" d="M100.959,17.554a8.777,8.777,0,1,1,8.777-8.777,8.787,8.787,0,0,1-8.777,8.777m0-17.026a8.248,8.248,0,1,0,8.249,8.248A8.258,8.258,0,0,0,100.959.529m0,15.7a7.456,7.456,0,1,1,7.456-7.456,7.464,7.464,0,0,1-7.456,7.456m0-14.382a6.927,6.927,0,1,0,6.927,6.927,6.935,6.935,0,0,0-6.927-6.927" transform="translate(-67.817)" fill="#ec6608"/>
    <path id="Pfad_317" data-name="Pfad 317" d="M92.336,69.159H85.1A9.508,9.508,0,0,0,75.6,78.667v3.015A4.815,4.815,0,0,0,80.41,86.5h1.1a.661.661,0,0,0,0-1.322h-1.1a3.493,3.493,0,0,1-3.493-3.493V78.667A8.187,8.187,0,0,1,85.1,70.481h7.233a8.26,8.26,0,0,1,8.26,8.26v3.1a3.336,3.336,0,0,1-3.336,3.335H86.41a.661.661,0,0,0,0,1.322H97.261a4.657,4.657,0,0,0,4.657-4.657v-3.1a9.582,9.582,0,0,0-9.582-9.582" transform="translate(-55.614 -50.879)" fill="#ec6608"/>
    <path id="Pfad_318" data-name="Pfad 318" d="M96.525,86.026H85.674a.925.925,0,0,1,0-1.85H96.525A3.075,3.075,0,0,0,99.6,81.1v-3.1a8.005,8.005,0,0,0-8-8H84.368a7.931,7.931,0,0,0-7.923,7.923v3.014a3.233,3.233,0,0,0,3.229,3.229h1.1a.925.925,0,0,1,0,1.85h-1.1A5.085,5.085,0,0,1,74.6,80.947V77.933a9.784,9.784,0,0,1,9.773-9.773H91.6a9.857,9.857,0,0,1,9.846,9.846v3.1a4.927,4.927,0,0,1-4.922,4.922M85.674,84.7a.4.4,0,0,0,0,.793H96.525a4.4,4.4,0,0,0,4.393-4.393v-3.1A9.328,9.328,0,0,0,91.6,68.689H84.368a9.255,9.255,0,0,0-9.244,9.244v3.015a4.556,4.556,0,0,0,4.55,4.55h1.1a.4.4,0,0,0,0-.793h-1.1a3.762,3.762,0,0,1-3.758-3.758V77.933a8.461,8.461,0,0,1,8.451-8.451H91.6a8.534,8.534,0,0,1,8.525,8.524v3.1a3.6,3.6,0,0,1-3.6,3.6Z" transform="translate(-54.878 -50.144)" fill="#ec6608"/>
  </g>
</svg>
