<svg xmlns="http://www.w3.org/2000/svg" width="22.116" height="22.117" viewBox="0 0 22.116 22.117">
  <path id="Icon_ion-checkmark-done-circle" data-name="Icon ion-checkmark-done-circle" d="M14.586,3.375a11.058,11.058,0,1,0,10.9,10.9A11.073,11.073,0,0,0,14.586,3.375Zm-.893,10.232,2.74-3.136a.851.851,0,1,1,1.281,1.12l-2.74,3.136a.851.851,0,0,1-1.281-1.12Zm-2.066,4.83a.851.851,0,0,1-1.2,0L7.876,15.884a.851.851,0,0,1,1.2-1.2l2.552,2.552a.851.851,0,0,1,0,1.2Zm9.4-6.847-5.948,6.8a.851.851,0,0,1-.612.291h-.029a.851.851,0,0,1-.6-.249l-2.548-2.552a.851.851,0,0,1,1.2-1.2l1.584,1.586a.425.425,0,0,0,.621-.021l5.05-5.776a.851.851,0,1,1,1.281,1.12Z" transform="translate(-3.374 -3.374)" fill="#ec6608"/>
</svg>
