<svg id="Gruppe_527" data-name="Gruppe 527" xmlns="http://www.w3.org/2000/svg" xmlns:xlink="http://www.w3.org/1999/xlink" width="74.91" height="75.802" viewBox="0 0 74.91 75.802">
  <defs>
    <clipPath id="clip-path">
      <rect id="Rechteck_217" data-name="Rechteck 217" width="74.91" height="75.802" fill="#ec6608"/>
    </clipPath>
  </defs>
  <g id="Gruppe_461" data-name="Gruppe 461" clip-path="url(#clip-path)">
    <path id="Pfad_319" data-name="Pfad 319" d="M7.631,33.814C4.6,35.681,5.292,36.124,2.809,33c-.736-.925-1.416-1.9-2.2-2.778-.957-1.072-.744-1.819.346-2.67q10.237-8,20.415-16.068Q27.745,6.46,34.124,1.437c2.409-1.893,4.147-1.916,6.512-.063q5.983,4.689,11.944,9.408c.154.122.308.245.457.373.548.469.833,1.021.312,1.66a1.085,1.085,0,0,1-1.687.075q-3.31-2.6-6.614-5.2C43.077,6.136,41.1,4.594,39.142,3.021a2.477,2.477,0,0,0-3.462.009Q19.579,15.747,3.445,28.423c-.727.57-.727.9-.179,1.6,2.033,2.594,2,2.616,4.58.586Q21.874,19.55,35.884,8.472a2.064,2.064,0,0,1,3.062,0C48.691,16.214,58.49,23.892,68.24,31.631c.941.747,1.433.932,2.245-.206,1.682-2.355,1.762-2.3-.5-4.083q-6.78-5.348-13.56-10.7a7.043,7.043,0,0,1-.985-.881.917.917,0,0,1-.019-1.226.964.964,0,0,1,1.284-.384,5.854,5.854,0,0,1,.973.658q8.062,6.344,16.117,12.7c1.394,1.1,1.429,1.389.376,2.749q-1.493,1.927-3.009,3.835c-1.192,1.507-1.383,1.523-2.954.311-.308-.238-.622-.467-.934-.7-.539.343-.293.833-.294,1.221-.016,12.375.007,24.751-.042,37.126-.005,1.279-.005,1.479-.005,1.479,1.562.015,3.564.023,4.547.046.726.017,1.292.343,1.267,1.13-.024.762-.56,1.1-1.308,1.086-.344-.005-.688,0-1.032,0H4.195c-.2,0-.394-.006-.59,0-.841.03-1.7-.044-1.677-1.139s.933-1.087,1.739-1.093c.836-.006,3.168-.067,4,.013,0,0,.01-.278,0-1.463C7.6,66.594,7.631,61.072,7.631,55.55c0-.345-.007-.691.006-1.035.028-.734.335-1.257,1.136-1.253.727,0,1.025.5,1.078,1.161.031.392.022.788.022,1.182,0,5.522.03,11.044-.022,16.566-.011,1.107-.009,1.414-.009,1.414,17.353-.031,37.594-.031,54.946,0,0,0,.018-.326.014-1.5q-.06-19.6-.005-39.2a2.239,2.239,0,0,0-.978-1.968Q51.1,20.948,38.436,10.909a1.31,1.31,0,0,0-1.983-.043q-12.77,10.148-25.618,20.2a2.353,2.353,0,0,0-.976,2.121c.036,5.029.018,10.058.014,15.087A7.989,7.989,0,0,1,9.82,49.6a1.082,1.082,0,0,1-2.158-.082c-.046-.885-.03-1.774-.03-2.661,0-4.286,0-8.573,0-13.041" transform="translate(0 0)" fill="#ec6608"/>
    <path id="Pfad_320" data-name="Pfad 320" d="M85.679,134.529c-.613-.084-1.23-.149-1.839-.257a16.458,16.458,0,0,1-10.161-5.988,15.879,15.879,0,0,1-3.547-8.236,16.4,16.4,0,0,1,4.879-14.241,16.069,16.069,0,0,1,9.456-4.634,16.73,16.73,0,0,1,18.624,13.009,15.785,15.785,0,0,1,.334,2.294,1.761,1.761,0,0,0,.054.253v2.094a1.928,1.928,0,0,0-.054.253,16.75,16.75,0,0,1-13.814,15.2c-.606.108-1.226.171-1.839.253Zm-14.4-16.755a15.445,15.445,0,1,0,15.447-15.443h0a15.473,15.473,0,0,0-15.446,15.443" transform="translate(-49.277 -71.127)" fill="#ec6608"/>
    <path id="Pfad_321" data-name="Pfad 321" d="M84.782,134.03l-.025,0c-.188-.026-.377-.05-.566-.074-.422-.053-.858-.109-1.287-.186a16.8,16.8,0,0,1-10.384-6.121,16.206,16.206,0,0,1-3.624-8.42,16.773,16.773,0,0,1,4.984-14.545,16.5,16.5,0,0,1,9.67-4.738,17.178,17.178,0,0,1,19.027,13.295,16.211,16.211,0,0,1,.342,2.346,1.512,1.512,0,0,0,.04.176l.014.1-.014,2.2a1.5,1.5,0,0,0-.044.2A17.115,17.115,0,0,1,88.8,133.77c-.43.076-.872.131-1.3.184-.184.023-.368.045-.552.07l-.049,0Zm1.068-33.51a16.2,16.2,0,0,0-2.2.151A15.773,15.773,0,0,0,74.4,105.2a16.073,16.073,0,0,0-4.776,13.938,15.479,15.479,0,0,0,3.465,8.046,16.072,16.072,0,0,0,9.939,5.861c.415.074.842.128,1.255.181.183.023.366.046.549.071h2.045c.178-.024.356-.046.534-.068.418-.052.85-.106,1.265-.179a16.384,16.384,0,0,0,13.512-14.865,2.338,2.338,0,0,1,.053-.277v-1.995a2.142,2.142,0,0,1-.051-.252,15.67,15.67,0,0,0-.329-2.265A16.462,16.462,0,0,0,85.85,100.519m0,32.2h0a15.829,15.829,0,0,1-15.81-15.813h0A15.871,15.871,0,0,1,85.855,101.1a15.811,15.811,0,0,1,0,31.623M70.776,116.907h0a15.1,15.1,0,0,0,15.076,15.08h0a15.078,15.078,0,0,0,0-30.156,15.137,15.137,0,0,0-15.08,15.076" transform="translate(-48.405 -70.26)" fill="#ec6608"/>
    <path id="Pfad_322" data-name="Pfad 322" d="M108.859,127.345a12.714,12.714,0,0,1-1.8,6.332.657.657,0,0,1-.729.377.633.633,0,0,1-.525-.556.815.815,0,0,1,.165-.551A11.515,11.515,0,1,0,94,138.465a11.4,11.4,0,0,0,7.817-1.377.892.892,0,0,1,.547-.183.633.633,0,0,1,.581.5.622.622,0,0,1-.316.723,12.43,12.43,0,0,1-2.669,1.216,12.825,12.825,0,1,1,8.713-14.351,13.641,13.641,0,0,1,.188,2.354" transform="translate(-58.582 -80.485)" fill="#ec6608"/>
    <path id="Pfad_323" data-name="Pfad 323" d="M95.147,139.465a13.2,13.2,0,1,1,13.02-15.4,14.018,14.018,0,0,1,.193,2.418l-.456,0,.456.007a13.1,13.1,0,0,1-1.842,6.5,1.019,1.019,0,0,1-1.126.565,1,1,0,0,1-.817-.876,1.188,1.188,0,0,1,.223-.794,11.149,11.149,0,1,0-4.052,4.038,1.272,1.272,0,0,1,.753-.244,1.008,1.008,0,0,1,.937.787.985.985,0,0,1-.508,1.128,12.732,12.732,0,0,1-2.724,1.238,13.224,13.224,0,0,1-4.057.641m.006-25.657a12.459,12.459,0,1,0,3.827,24.317,12.065,12.065,0,0,0,2.591-1.18.266.266,0,0,0,.154-.31.277.277,0,0,0-.25-.231h0a.521.521,0,0,0-.3.109l-.037.025a11.882,11.882,0,1,1,4.287-4.273l-.025.037a.446.446,0,0,0-.09.3.263.263,0,0,0,.219.22.3.3,0,0,0,.333-.164l.02-.039a12.356,12.356,0,0,0,1.748-6.147,13.319,13.319,0,0,0-.183-2.291,12.459,12.459,0,0,0-12.291-10.376" transform="translate(-57.715 -79.617)" fill="#ec6608"/>
    <path id="Pfad_324" data-name="Pfad 324" d="M101.541,137.138H106q.9,0,.921.638c.011.438-.308.671-.921.671-1.516,0-3.032.005-4.548-.006-.232,0-.325.059-.354.294a8.587,8.587,0,0,0,0,2.055c.026.225.117.28.332.28q2.388-.012,4.776,0a.657.657,0,0,1,.709.6c0,.016,0,.033,0,.049a.664.664,0,0,1-.671.658h-4.718a5.907,5.907,0,0,0,1.357,2.132,4.625,4.625,0,0,0,6.536.223q.17-.159.323-.334c.05-.056.1-.115.157-.167a.646.646,0,0,1,.91-.051.636.636,0,0,1,.086.9l-.033.037a6.306,6.306,0,0,1-2.087,1.6,6,6,0,0,1-7.423-1.976,7.549,7.549,0,0,1-1.119-2.095.338.338,0,0,0-.394-.271H99.84c-.436.018-.872.008-1.308,0-.471,0-.77-.266-.765-.663a.669.669,0,0,1,.689-.648c.021,0,.041,0,.062.005.36,0,.72-.009,1.079,0,.178.005.225-.055.2-.226a7.753,7.753,0,0,1,0-2.152c.033-.226-.064-.253-.249-.246-.36.011-.72.009-1.079,0a.657.657,0,1,1,.009-1.305c.447-.007.895-.019,1.341.005.253.014.351-.084.436-.312a7.018,7.018,0,0,1,3.224-3.888,5.915,5.915,0,0,1,7.378,1.442.652.652,0,1,1-.977.862,5.008,5.008,0,0,0-2.511-1.571,4.772,4.772,0,0,0-5.072,2.038,5.737,5.737,0,0,0-.754,1.423" transform="translate(-68.823 -93.107)" fill="#ec6608"/>
    <path id="Pfad_325" data-name="Pfad 325" d="M105.382,146.771a6.356,6.356,0,0,1-5.2-2.69,7.87,7.87,0,0,1-1.166-2.187l-.009-.025h-.028c-.365.015-.731.011-1.085.007l-.242,0a1.175,1.175,0,0,1-.855-.328.97.97,0,0,1-.273-.707,1.039,1.039,0,0,1,1.035-1.01h.033l.07,0h.079c.265,0,.53-.006.794,0a8.151,8.151,0,0,1,0-1.884c-.283.006-.589.005-.929,0a1.024,1.024,0,0,1-1.1-.91,1.024,1.024,0,0,1,1.114-1.129l.162,0c.386-.006.785-.012,1.182.008a.339.339,0,0,0,.045,0c0-.009.013-.032.028-.074a7.361,7.361,0,0,1,3.388-4.08,6.3,6.3,0,0,1,7.84,1.529.988.988,0,0,1,.27.7,1.019,1.019,0,0,1-1.019,1.01h-.009a1.011,1.011,0,0,1-.718-.305.836.836,0,0,1-.074-.084,4.614,4.614,0,0,0-2.316-1.442,4.416,4.416,0,0,0-4.672,1.884,5.5,5.5,0,0,0-.51.856h3.909c1.139,0,1.28.7,1.287,1a.944.944,0,0,1-.258.7,1.387,1.387,0,0,1-1.03.344h-1.155c-1.128,0-2.257,0-3.386-.006a8.268,8.268,0,0,0,0,1.9c1.576-.009,3.175-.008,4.752,0a1.02,1.02,0,0,1,1.073.936c0,.024,0,.049,0,.075a1.031,1.031,0,0,1-1.031,1.029h-.01l-.054,0h-4.107a5.583,5.583,0,0,0,1.064,1.507,4.258,4.258,0,0,0,6.026.213,4.162,4.162,0,0,0,.3-.307l.038-.042c.046-.051.093-.1.143-.151a1.007,1.007,0,0,1,1.405-.058,1,1,0,0,1,.125,1.4c-.017.02-.034.039-.051.058a6.6,6.6,0,0,1-2.2,1.677,6.357,6.357,0,0,1-2.683.594m-5.662-5.095a7.16,7.16,0,0,0,1.057,1.971,5.629,5.629,0,0,0,6.975,1.865,5.89,5.89,0,0,0,1.963-1.5l.312.2-.283-.234a.268.268,0,0,0-.036-.378.283.283,0,0,0-.4.013c-.056.055-.089.092-.122.128l-.036.04a4.792,4.792,0,0,1-.344.355,5,5,0,0,1-7.054-.241,6.3,6.3,0,0,1-1.434-2.256l-.18-.493h5.243a.329.329,0,0,0,.214-.085.294.294,0,0,0,.089-.209.3.3,0,0,0-.314-.28c-1.616-.007-3.222-.007-4.8,0h-.006a.627.627,0,0,1-.693-.6,8.987,8.987,0,0,1,0-2.142.642.642,0,0,1,.718-.617c1.133.008,2.263.007,3.392.006h1.155c.347,0,.469-.086.5-.123a.209.209,0,0,0,.05-.171c0-.1-.007-.28-.554-.28h-4.462v-.368l-.342-.123a6.087,6.087,0,0,1,.8-1.514,5.151,5.151,0,0,1,5.452-2.18,5.361,5.361,0,0,1,2.706,1.689l.03.036a.284.284,0,0,0,.2.085.242.242,0,0,0,.2-.082.285.285,0,0,0,0-.4,5.571,5.571,0,0,0-6.942-1.377,6.635,6.635,0,0,0-3.051,3.682.746.746,0,0,1-.8.561c-.372-.019-.757-.013-1.131-.007l-.21,0-.025,0a.282.282,0,0,0-.065,0,.29.29,0,0,0-.151.515.286.286,0,0,0,.213.062l.024,0h.024c.4.01.744.01,1.06,0a.625.625,0,0,1,.5.171.6.6,0,0,1,.119.495,7.387,7.387,0,0,0,0,2.048.52.52,0,0,1-.577.644c-.318-.008-.64,0-.962,0h-.13l-.027,0a.305.305,0,0,0-.334.291.24.24,0,0,0,.064.178.476.476,0,0,0,.337.107l.244,0c.335,0,.681.007,1.018-.006l.018,0a.706.706,0,0,1,.492.118.7.7,0,0,1,.287.421m-.748.171h0v0Z" transform="translate(-67.951 -92.243)" fill="#ec6608"/>
    <path id="Pfad_326" data-name="Pfad 326" d="M154.643,185.069a.652.652,0,1,1-.667-.636h.016a.657.657,0,0,1,.651.637" transform="translate(-107.969 -129.862)" fill="#ec6608"/>
    <path id="Pfad_327" data-name="Pfad 327" d="M153.118,185.23a1.019,1.019,0,0,1-.022-2.037,1.027,1.027,0,0,1,1.042.992v0a1.018,1.018,0,0,1-.995,1.042h-.025m0-1.3a.287.287,0,0,0-.2.088.285.285,0,0,0,.009.4.278.278,0,0,0,.2.078.284.284,0,0,0,.279-.29.29.29,0,0,0-.288-.28" transform="translate(-107.097 -128.989)" fill="#ec6608"/>
  </g>
</svg>
