<svg id="Gruppe_523" data-name="Gruppe 523" xmlns="http://www.w3.org/2000/svg" xmlns:xlink="http://www.w3.org/1999/xlink" width="76.761" height="153.534" viewBox="0 0 76.761 153.534">
  <defs>
    <clipPath id="clip-path">
      <rect id="Rechteck_223" data-name="Rechteck 223" width="76.761" height="153.534" fill="#fff"/>
    </clipPath>
  </defs>
  <g id="Gruppe_473" data-name="Gruppe 473" clip-path="url(#clip-path)">
    <path id="Pfad_332" data-name="Pfad 332" d="M82.117,36.992l-3.093-7.723A57.111,57.111,0,0,1,74.947,9.7L74.7,1.531A1.579,1.579,0,0,0,72.2.3l-9.76,7.016a62.139,62.139,0,0,1-18.9,9.264C40.406,17.49,37.2,18.285,34,18.94L16,22.631l-.22-1.072a2.871,2.871,0,0,0-3.385-2.233l-1.968.4a2.871,2.871,0,0,0-2.233,3.385l23.7,115.59a2.866,2.866,0,0,0,3.385,2.233l1.968-.4a2.867,2.867,0,0,0,2.233-3.385L24.055,61.933l14.909-3.056c1.97-.4,3.953-.851,5.9-1.328a89.358,89.358,0,0,0,33.769-16.4l2.991-2.327a1.587,1.587,0,0,0,.5-1.832M37.69,138.4a1.221,1.221,0,0,1-.779.527l-1.968.4a1.229,1.229,0,0,1-1.45-.957L9.8,22.785a1.23,1.23,0,0,1,.957-1.45l1.968-.4a1.236,1.236,0,0,1,.249-.025,1.229,1.229,0,0,1,1.2.982l23.7,115.59a1.22,1.22,0,0,1-.178.923M77.623,39.858a87.737,87.737,0,0,1-33.154,16.1c-1.922.472-3.885.914-5.834,1.314L23.753,60.322l-7.4-36.091,17.978-3.685c3.237-.663,6.49-1.47,9.667-2.4A63.771,63.771,0,0,0,63.4,8.643l9.668-6.949.241,8.054A58.746,58.746,0,0,0,77.5,29.878l3.075,7.681Z" transform="translate(-5.468 0)" fill="#fff"/>
    <path id="Pfad_333" data-name="Pfad 333" d="M37.083,395.192h0a.828.828,0,0,0,.743.821c11.974,1.276,21.038,5.47,21.038,10.287,0,5.792-13.1,10.684-28.613,10.684S1.639,412.092,1.639,406.3c0-4.454,7.749-8.376,18.382-9.95a.829.829,0,0,0,.71-.818v-.006a.829.829,0,0,0-.952-.818C8.126,396.409,0,400.9,0,406.3c0,6.91,13.288,12.323,30.252,12.323S60.5,413.211,60.5,406.3c0-5.817-9.415-10.573-22.512-11.932a.827.827,0,0,0-.908.824" transform="translate(0 -265.09)" fill="#fff"/>
  </g>
</svg>
