<svg id="Gruppe_156" data-name="Gruppe 156" xmlns="http://www.w3.org/2000/svg" xmlns:xlink="http://www.w3.org/1999/xlink" width="59.26" height="62.643" viewBox="0 0 59.26 62.643">
  <defs>
    <clipPath id="clip-path">
      <rect id="Rechteck_99" data-name="Rechteck 99" width="59.26" height="62.643" fill="#ec6608"/>
    </clipPath>
  </defs>
  <g id="Gruppe_155" data-name="Gruppe 155" clip-path="url(#clip-path)">
    <path id="Pfad_143" data-name="Pfad 143" d="M112.419,0a1.561,1.561,0,0,1,.917,1.571c-.02,2.161-.027,4.322,0,6.483A1.251,1.251,0,0,1,111.591,9.4a1.323,1.323,0,0,1-.706-1.319c0-1.04,0-2.079-.005-3.119a1.084,1.084,0,0,0-.067-.605c-.247.035-.355.252-.5.4q-6.017,6-12.027,12.017c-.96.959-1.487.955-2.459-.017-1.211-1.21-2.442-2.4-3.622-3.642-.421-.442-.647-.49-1.113-.021Q81.039,23.2,70.948,33.259a5.209,5.209,0,0,1-.587.533,1.192,1.192,0,0,1-1.689-1.65,3.717,3.717,0,0,1,.442-.5Q79.77,20.975,90.43,10.315c.936-.936,1.472-.931,2.424.02,1.3,1.3,2.6,2.589,3.888,3.9.231.234.364.28.623.02q5.781-5.808,11.581-11.6a2.078,2.078,0,0,0,.138-.207h-.931q-1.56,0-3.119,0c-.927,0-1.383-.245-1.589-.846s.014-1.049.777-1.6Z" transform="translate(-57.953)" fill="#ec6608"/>
    <path id="Pfad_144" data-name="Pfad 144" d="M29.643,161.877H1.812c-.2,0-.409.01-.611-.008A1.206,1.206,0,0,1,0,160.656a1.184,1.184,0,0,1,1.2-1.212,21.177,21.177,0,0,1,2.2,0c.5.027.654-.11.65-.631-.024-3.323.048-6.648-.033-9.969a3.468,3.468,0,0,1,3.756-3.747c1.729.081,3.465.014,5.2.017a3.312,3.312,0,0,1,3.627,3.6c.015,3.323.021,6.647-.011,9.97-.006.613.143.785.769.768,1.752-.048,3.507-.043,5.259,0,.613.014.81-.118.808-.779-.028-6.728-.019-13.456-.016-20.185a3.34,3.34,0,0,1,2.622-3.564,2.831,2.831,0,0,1,.605-.074c2.039-.006,4.078-.034,6.116,0a3.252,3.252,0,0,1,3.237,3.366c.022,2.018.005,4.037.005,6.055,0,4.852.006,9.7-.009,14.557,0,.458.087.626.591.617,1.855-.033,3.711-.04,5.565,0,.589.013.689-.187.688-.719q-.02-18.9-.019-37.8a3.566,3.566,0,0,1,1.168-2.953,2.91,2.91,0,0,1,1.888-.76c2.161-.011,4.322-.043,6.482.011a3.152,3.152,0,0,1,2.986,2.875c.034.365.043.732.043,1.1q0,18.686,0,37.372c0,.861,0,.86.887.861.571,0,1.142-.016,1.713.006a1.221,1.221,0,1,1-.013,2.438c-.183.009-.367,0-.55,0H29.643m15.62-22.08q0,9.51-.008,19.02c0,.447.07.635.586.627,2.181-.032,4.362-.024,6.544,0,.418,0,.555-.1.554-.538q-.017-19.05-.011-38.1c0-.931-.236-1.16-1.164-1.163q-2.6-.008-5.2,0c-1.127,0-1.3.179-1.3,1.325q0,9.418,0,18.836m-11.717,8.8q0-5.1,0-10.207c0-.809-.3-1.1-1.107-1.106q-2.72-.009-5.44,0c-.844,0-1.143.293-1.143,1.14q-.006,10.237-.011,20.475c0,.431.121.546.546.542,2.2-.02,4.4-.024,6.6,0,.467.006.569-.129.567-.578-.019-3.423-.01-6.845-.011-10.268M6.483,153.7c0,1.753.01,3.505-.008,5.258,0,.373.1.485.48.482q3.362-.026,6.725,0c.386,0,.48-.127.479-.49-.011-3.444,0-6.888-.011-10.332,0-.787-.3-1.055-1.088-1.058q-2.721-.009-5.441,0c-.865,0-1.131.265-1.134,1.128-.006,1.671,0,3.342,0,5.013" transform="translate(0 -99.237)" fill="#ec6608"/>
    <path id="Pfad_145" data-name="Pfad 145" d="M43.936,235.454a1.2,1.2,0,0,1-2.405.018,1.2,1.2,0,1,1,2.405-.018" transform="translate(-35.167 -198.356)" fill="#ec6608"/>
  </g>
</svg>
