<svg id="Gruppe_525" data-name="Gruppe 525" xmlns="http://www.w3.org/2000/svg" xmlns:xlink="http://www.w3.org/1999/xlink" width="80.041" height="60.67" viewBox="0 0 80.041 60.67">
  <defs>
    <clipPath id="clip-path">
      <rect id="Rechteck_215" data-name="Rechteck 215" width="80.041" height="60.67" fill="#ec6608"/>
    </clipPath>
  </defs>
  <g id="Gruppe_457" data-name="Gruppe 457" clip-path="url(#clip-path)">
    <path id="Pfad_298" data-name="Pfad 298" d="M.021,74.275C.021,70.287.06,66.3,0,62.312c-.021-1.45.5-1.977,1.969-1.975,2.564,0,5.016.006,6.124,2.971.29.775,1.064.467,1.637.481,4.095.095,8.2-.216,12.275.5a28.667,28.667,0,0,1,12.286,5.222c5.681,4.219,11.319,8.5,16.985,12.735a3.832,3.832,0,0,1,1.76,2.38c.177,1.282.89,1.276,1.874,1.242q9.685-.343,19.373-.611c3.283-.089,5.406,1.6,5.723,4.437.3,2.7-1.453,4.814-4.593,5.432-9.365,1.842-18.728,3.694-28.107,5.463-3.844.056-6.581-.169-10.717-2.418-5.015-3.51-10.075-6.959-15-10.586a14.693,14.693,0,0,0-8.53-2.986,15.327,15.327,0,0,0-2.716.08c-1.255.139-2.215.225-2.8,1.659a3.551,3.551,0,0,1-3.492,1.938c-.73.012-1.466-.049-2.19.018C.426,88.428-.01,87.749,0,86.407c.046-4.044.017-8.088.017-12.132m8.258.017v8.716s.006.042,3.934-.138a15.993,15.993,0,0,1,10.959,3.466c3.374,2.6,7.166,4.694,10.4,7.449,5.521,4.7,11.4,5.886,18.462,4.057,7.592-1.968,15.4-3.09,23.114-4.6,1.977-.388,3.08-1.66,2.954-3.28A2.956,2.956,0,0,0,74.878,87.2c-6.963.169-13.924.393-20.885.593a1.81,1.81,0,0,0-1.46.632c-2.105,2.384-4,2.664-6.651,1.028q-6.52-4.023-13.018-8.082a6.851,6.851,0,0,1-.96-.676.837.837,0,0,1-.19-1.072.848.848,0,0,1,1.137-.438,7.251,7.251,0,0,1,1.175.643c4.293,2.662,8.577,5.338,12.876,7.99,1.692,1.044,3.15.871,4-.413.872-1.312.494-2.629-1.132-3.853q-8.142-6.128-16.292-12.246a28.35,28.35,0,0,0-8.667-4.383c-5.157-1.613-10.458-1.095-15.721-1.186-.87-.015-.812-.015-.812-.015,0,2.471,0,6.1,0,8.567m-6.313-.007q0,4.972,0,9.944c0,2.173.408,2.514,2.545,2.045,1.4-.308,1.818-1.309,1.815-2.637-.015-6.18-.006-12.36-.007-18.54a5.119,5.119,0,0,0-.033-.841C6.04,62.786,4.895,62.32,2.9,62.314c-1.1,0-.876,1.341-.895,2.027-.089,3.312-.04,6.628-.04,9.943" transform="translate(0 -39.929)" fill="#ec6608"/>
    <path id="Pfad_299" data-name="Pfad 299" d="M130.364,31.9c-.565-.078-1.134-.137-1.7-.237a15.176,15.176,0,0,1-9.37-5.522,14.644,14.644,0,0,1-3.271-7.6,15.12,15.12,0,0,1,4.5-13.132,14.818,14.818,0,0,1,8.72-4.273,15.428,15.428,0,0,1,17.174,12,14.54,14.54,0,0,1,.308,2.115,1.609,1.609,0,0,0,.05.233v1.931a1.821,1.821,0,0,0-.05.233,15.447,15.447,0,0,1-12.739,14.017c-.559.1-1.13.157-1.7.233ZM117.087,16.447A14.243,14.243,0,1,0,131.331,2.206h0a14.269,14.269,0,0,0-14.244,14.241" transform="translate(-76.694 -0.657)" fill="#ec6608"/>
    <path id="Pfad_300" data-name="Pfad 300" d="M129.681,31.579l-.023,0c-.174-.024-.348-.046-.522-.068-.389-.049-.791-.1-1.187-.171a15.489,15.489,0,0,1-9.575-5.645,14.943,14.943,0,0,1-3.342-7.765,15.467,15.467,0,0,1,4.6-13.412A15.221,15.221,0,0,1,128.545.146a15.841,15.841,0,0,1,17.546,12.26,15.013,15.013,0,0,1,.316,2.163,1.318,1.318,0,0,0,.037.162l.014.095-.013,2.024a1.429,1.429,0,0,0-.04.188,15.784,15.784,0,0,1-13.017,14.3c-.4.07-.8.121-1.2.169-.17.021-.339.042-.508.065l-.045,0Zm.985-30.9a14.98,14.98,0,0,0-2.033.139,14.549,14.549,0,0,0-8.526,4.176,14.822,14.822,0,0,0-4.4,12.853,14.275,14.275,0,0,0,3.2,7.42,14.822,14.822,0,0,0,9.166,5.4c.383.068.777.118,1.157.167.169.021.337.043.506.066h1.886c.164-.022.328-.042.493-.063.386-.048.784-.1,1.167-.165a14.811,14.811,0,0,0,8.821-4.995,14.84,14.84,0,0,0,3.64-8.713,2.026,2.026,0,0,1,.049-.255v-1.84a2,2,0,0,1-.047-.232,14.4,14.4,0,0,0-.3-2.089A15.181,15.181,0,0,0,130.665.677m0,29.7h0a14.6,14.6,0,0,1-14.579-14.583h0A14.635,14.635,0,0,1,130.67,1.211,14.58,14.58,0,0,1,140.978,26.1a14.484,14.484,0,0,1-10.309,4.269m-13.9-14.583h0a13.92,13.92,0,0,0,13.9,13.906h0A13.9,13.9,0,0,0,140.5,5.961a13.813,13.813,0,0,0-9.832-4.074,13.958,13.958,0,0,0-13.906,13.9" transform="translate(-76.033 0)" fill="#ec6608"/>
    <path id="Pfad_301" data-name="Pfad 301" d="M150.215,23.739a11.725,11.725,0,0,1-1.66,5.839.606.606,0,0,1-.672.348.583.583,0,0,1-.484-.513.748.748,0,0,1,.152-.508,10.62,10.62,0,1,0-3.832,3.819.82.82,0,0,1,.5-.169.583.583,0,0,1,.536.459.573.573,0,0,1-.292.667,11.473,11.473,0,0,1-2.461,1.121,11.826,11.826,0,1,1,8.035-13.234,12.617,12.617,0,0,1,.173,2.171" transform="translate(-83.749 -7.752)" fill="#ec6608"/>
    <path id="Pfad_302" data-name="Pfad 302" d="M137.711,35.056a12.171,12.171,0,1,1,12.007-14.2,12.957,12.957,0,0,1,.178,2.23l-.42,0,.42.006a12.072,12.072,0,0,1-1.7,5.991.94.94,0,0,1-1.038.521.92.92,0,0,1-.754-.807,1.1,1.1,0,0,1,.206-.732,10.282,10.282,0,1,0-3.737,3.724,1.177,1.177,0,0,1,.694-.225.93.93,0,0,1,.864.725.908.908,0,0,1-.469,1.04,11.726,11.726,0,0,1-2.512,1.142,12.192,12.192,0,0,1-3.741.592m.005-23.66a11.489,11.489,0,1,0,3.529,22.425,11.134,11.134,0,0,0,2.39-1.088.246.246,0,0,0,.142-.286.256.256,0,0,0-.231-.213h0a.481.481,0,0,0-.279.1l-.034.023a10.957,10.957,0,1,1,3.953-3.941l-.023.035a.412.412,0,0,0-.084.279.243.243,0,0,0,.2.2.272.272,0,0,0,.307-.152l.019-.036a11.4,11.4,0,0,0,1.612-5.668,12.31,12.31,0,0,0-.168-2.112A11.49,11.49,0,0,0,137.717,11.4" transform="translate(-83.092 -7.094)" fill="#ec6608"/>
    <path id="Pfad_303" data-name="Pfad 303" d="M141.787,30.7H145.9q.834,0,.849.588c.01.4-.284.618-.849.618-1.4,0-2.8.005-4.194-.005-.214,0-.3.055-.326.271a7.929,7.929,0,0,0,0,1.9c.024.207.109.258.307.258q2.2-.011,4.4,0a.605.605,0,0,1,.654.553c0,.015,0,.03,0,.045a.613.613,0,0,1-.619.607h-4.351a5.447,5.447,0,0,0,1.251,1.966,4.267,4.267,0,0,0,6.326-.1c.046-.051.093-.106.144-.154a.6.6,0,0,1,.839-.047.586.586,0,0,1,.079.825l-.031.035a5.811,5.811,0,0,1-1.925,1.475,5.529,5.529,0,0,1-6.845-1.822,6.968,6.968,0,0,1-1.032-1.932.312.312,0,0,0-.363-.25h0c-.4.017-.8.007-1.206,0-.434,0-.71-.245-.7-.611a.617.617,0,0,1,.635-.6l.057,0c.332,0,.664-.008,1,0,.164.005.208-.05.186-.209a7.14,7.14,0,0,1,0-1.984c.03-.209-.059-.233-.229-.227-.332.01-.664.008-1,0a.606.606,0,1,1,.008-1.2c.412-.006.825-.017,1.237,0,.233.013.324-.077.4-.288a6.472,6.472,0,0,1,2.973-3.585,5.454,5.454,0,0,1,6.8,1.33.6.6,0,0,1-.858.843.576.576,0,0,1-.043-.049,4.62,4.62,0,0,0-2.316-1.449,4.4,4.4,0,0,0-4.677,1.88,5.3,5.3,0,0,0-.7,1.312" transform="translate(-91.514 -17.322)" fill="#ec6608"/>
    <path id="Pfad_304" data-name="Pfad 304" d="M145.472,39.725a5.862,5.862,0,0,1-4.792-2.481,7.267,7.267,0,0,1-1.076-2.016L139.6,35.2h-.026c-.336.014-.674.011-1,.007l-.223,0a1.084,1.084,0,0,1-.789-.3.894.894,0,0,1-.252-.652.958.958,0,0,1,.954-.931h.03l.065,0h.073c.244,0,.488-.006.733,0a7.536,7.536,0,0,1,0-1.737c-.261.006-.543.005-.857,0a.944.944,0,0,1-1.015-.839.944.944,0,0,1,1.027-1.041l.149,0c.356-.005.723-.011,1.09.007a.287.287,0,0,0,.042,0c0-.008.012-.03.026-.068a6.79,6.79,0,0,1,3.125-3.762,5.805,5.805,0,0,1,7.23,1.41.912.912,0,0,1,.25.645.94.94,0,0,1-.94.931h-.009a.933.933,0,0,1-.662-.281.782.782,0,0,1-.069-.077,4.251,4.251,0,0,0-2.136-1.33,4.072,4.072,0,0,0-4.308,1.738,5.082,5.082,0,0,0-.471.789h3.6c1.051,0,1.18.642,1.187.918a.872.872,0,0,1-.238.647,1.279,1.279,0,0,1-.95.318h-1.065c-1.04,0-2.081,0-3.123-.006a7.607,7.607,0,0,0,0,1.748c1.454-.008,2.928-.007,4.382,0a.941.941,0,0,1,.989.863c0,.022,0,.046,0,.069a.951.951,0,0,1-.95.949h-.009l-.05,0h-3.787a5.146,5.146,0,0,0,.982,1.389,3.926,3.926,0,0,0,5.557.2,3.744,3.744,0,0,0,.274-.283l.035-.039c.042-.047.086-.1.132-.139a.928.928,0,0,1,1.3-.053.924.924,0,0,1,.115,1.293c-.016.019-.031.037-.047.053a6.086,6.086,0,0,1-2.024,1.547,5.865,5.865,0,0,1-2.474.548m-5.221-4.7a6.609,6.609,0,0,0,.975,1.818,5.191,5.191,0,0,0,6.433,1.72,5.43,5.43,0,0,0,1.811-1.387l.288.185-.261-.215a.248.248,0,0,0-.033-.349.26.26,0,0,0-.372.012c-.052.05-.082.085-.112.118l-.033.037a4.437,4.437,0,0,1-.318.327,4.607,4.607,0,0,1-6.505-.222,5.809,5.809,0,0,1-1.322-2.08l-.167-.455h4.835a.3.3,0,0,0,.2-.078.271.271,0,0,0,.082-.193.275.275,0,0,0-.29-.258c-1.49-.007-2.971-.006-4.431,0h-.006a.578.578,0,0,1-.639-.556,8.278,8.278,0,0,1,0-1.975.592.592,0,0,1,.662-.569c1.044.008,2.087.006,3.129.006h1.065c.32,0,.432-.079.465-.114a.193.193,0,0,0,.046-.158c0-.09-.007-.258-.511-.258h-4.115v-.34l-.316-.114a5.624,5.624,0,0,1,.74-1.4,4.751,4.751,0,0,1,5.028-2.01,4.943,4.943,0,0,1,2.5,1.558l.028.033a.262.262,0,0,0,.185.078.225.225,0,0,0,.187-.075.263.263,0,0,0,0-.372,5.138,5.138,0,0,0-6.4-1.27,6.12,6.12,0,0,0-2.813,3.4.687.687,0,0,1-.741.517c-.343-.018-.7-.012-1.042-.006l-.194,0-.023,0a.256.256,0,0,0-.06,0,.268.268,0,0,0-.14.475.262.262,0,0,0,.2.058l.022,0h.022c.366.009.686.009.977,0a.577.577,0,0,1,.465.157.551.551,0,0,1,.11.457,6.8,6.8,0,0,0,0,1.889.531.531,0,0,1-.108.44.538.538,0,0,1-.423.154c-.293-.008-.59,0-.887,0h-.12l-.025,0a.281.281,0,0,0-.308.268.221.221,0,0,0,.059.164.438.438,0,0,0,.31.1l.225,0c.309,0,.628.007.938-.005l.017,0a.651.651,0,0,1,.718.5m-.69.158h0v0Z" transform="translate(-90.852 -16.667)" fill="#ec6608"/>
    <path id="Pfad_305" data-name="Pfad 305" d="M184.337,68.873a.6.6,0,1,1-.615-.586h.015a.606.606,0,0,1,.6.587" transform="translate(-121.194 -45.19)" fill="#ec6608"/>
    <path id="Pfad_306" data-name="Pfad 306" d="M183.073,69.165a.939.939,0,0,1-.02-1.879.946.946,0,0,1,.961.915v0a.939.939,0,0,1-.917.961h-.023m0-1.2a.263.263,0,0,0-.261.269.262.262,0,0,0,.081.184.263.263,0,0,0,.444-.195.267.267,0,0,0-.265-.258" transform="translate(-120.532 -44.528)" fill="#ec6608"/>
  </g>
</svg>
