<svg id="Gruppe_25" data-name="Gruppe 25" xmlns="http://www.w3.org/2000/svg" width="16.279" height="16.279" viewBox="0 0 16.279 16.279">
  <path id="Pfad_24" data-name="Pfad 24" d="M8.139,0a8.139,8.139,0,1,0,8.139,8.139A8.149,8.149,0,0,0,8.139,0Zm0,14.547a6.407,6.407,0,1,1,6.408-6.407A6.415,6.415,0,0,1,8.139,14.547Z" fill="#fff"/>
  <path id="Pfad_25" data-name="Pfad 25" d="M49.064,21.9H45.406V17.5a.67.67,0,1,0-1.34,0v5.068a.67.67,0,0,0,.67.67h4.328a.67.67,0,1,0,0-1.34Z" transform="translate(-36.683 -14.01)" fill="#fff"/>
</svg>
