<svg xmlns="http://www.w3.org/2000/svg" width="14.268" height="11.21" viewBox="0 0 14.268 11.21">
  <g id="Gruppe_531" data-name="Gruppe 531" transform="translate(0 -54.82)">
    <g id="Gruppe_20" data-name="Gruppe 20" transform="translate(0 54.82)">
      <path id="Pfad_21" data-name="Pfad 21" d="M1.369,58.275Q1.64,58.466,3,59.41t2.086,1.453l.338.243q.259.187.43.3t.414.259a2.4,2.4,0,0,0,.458.215,1.261,1.261,0,0,0,.4.072h.016a1.263,1.263,0,0,0,.4-.072A2.4,2.4,0,0,0,8,61.667q.243-.143.414-.259t.43-.3q.259-.187.338-.243l3.726-2.588a3.782,3.782,0,0,0,.971-.979,2.1,2.1,0,0,0,.39-1.2,1.285,1.285,0,0,0-1.274-1.274H1.274a1.137,1.137,0,0,0-.943.414A1.607,1.607,0,0,0,0,56.269a1.86,1.86,0,0,0,.438,1.087A3.952,3.952,0,0,0,1.369,58.275Z" transform="translate(0 -54.82)" fill="#fff"/>
      <path id="Pfad_22" data-name="Pfad 22" d="M13.471,185.13q-2.611,1.767-3.965,2.747-.454.334-.736.521a4.545,4.545,0,0,1-.752.382,2.291,2.291,0,0,1-.876.2H7.126a2.292,2.292,0,0,1-.876-.2A4.547,4.547,0,0,1,5.5,188.4q-.283-.187-.736-.521Q3.686,187.088.8,185.13a4.217,4.217,0,0,1-.8-.693v6.322a1.226,1.226,0,0,0,.374.9,1.226,1.226,0,0,0,.9.374h11.72a1.278,1.278,0,0,0,1.274-1.274v-6.322A4.39,4.39,0,0,1,13.471,185.13Z" transform="translate(0 -180.822)" fill="#fff"/>
    </g>
  </g>
</svg>
