<svg xmlns="http://www.w3.org/2000/svg" width="18.794" height="14.956" viewBox="0 0 18.794 14.956">
  <g id="Gruppe_530" data-name="Gruppe 530" transform="translate(0.001 -46.994)">
    <g id="Gruppe_18" data-name="Gruppe 18" transform="translate(-0.001 46.994)">
      <path id="Pfad_19" data-name="Pfad 19" d="M72.412,120.939l-6.7,5.526a.158.158,0,0,1-.006.035.16.16,0,0,0-.006.035v5.6a.757.757,0,0,0,.746.746H70.92V128.4H73.9v4.477h4.476a.758.758,0,0,0,.746-.746v-5.6a.164.164,0,0,0-.012-.07Z" transform="translate(-63.016 -117.92)" fill="#fff"/>
      <path id="Pfad_20" data-name="Pfad 20" d="M18.664,54.28l-2.553-2.122V47.4a.359.359,0,0,0-.373-.373H13.5a.359.359,0,0,0-.373.373v2.273L10.282,47.3a1.446,1.446,0,0,0-1.772,0L.129,54.28A.339.339,0,0,0,0,54.53a.377.377,0,0,0,.082.274l.723.863a.4.4,0,0,0,.245.128.433.433,0,0,0,.28-.082L9.4,48.987l8.067,6.726a.359.359,0,0,0,.245.081h.035a.4.4,0,0,0,.245-.128l.723-.863a.377.377,0,0,0,.081-.274A.34.34,0,0,0,18.664,54.28Z" transform="translate(0.001 -46.994)" fill="#fff"/>
    </g>
  </g>
</svg>
