<svg xmlns="http://www.w3.org/2000/svg" width="14.805" height="14.771" viewBox="0 0 14.805 14.771">
  <g id="Gruppe_532" data-name="Gruppe 532" transform="translate(0 -0.394)">
    <g id="Gruppe_23" data-name="Gruppe 23" transform="translate(0 0.394)">
      <g id="Gruppe_22" data-name="Gruppe 22" transform="translate(0 0)">
        <path id="Pfad_23" data-name="Pfad 23" d="M14.472,12.077,12.186,9.79a1.192,1.192,0,0,0-1.681.032L9.353,10.974l-.227-.126a11.463,11.463,0,0,1-2.771-2A11.527,11.527,0,0,1,4.348,6.068c-.043-.077-.084-.151-.124-.222L5,5.074l.38-.381a1.191,1.191,0,0,0,.031-1.681L3.121.725A1.191,1.191,0,0,0,1.44.757L.8,1.405l.018.017a3.726,3.726,0,0,0-.531.937,3.883,3.883,0,0,0-.236.95c-.3,2.5.842,4.79,3.946,7.894,4.29,4.29,7.748,3.966,7.9,3.95a3.863,3.863,0,0,0,.953-.239,3.714,3.714,0,0,0,.933-.529l.014.013.653-.639A1.193,1.193,0,0,0,14.472,12.077Z" transform="translate(0 -0.394)" fill="#fff"/>
      </g>
    </g>
  </g>
</svg>
