<svg xmlns="http://www.w3.org/2000/svg" width="11.679" height="15.354" viewBox="0 0 11.679 15.354">
  <g id="Gruppe_534" data-name="Gruppe 534" transform="translate(-41.895)">
    <path id="Pfad_26" data-name="Pfad 26" d="M107.626,7.509c1.707,0,3.091-1.681,3.091-3.755S110.263,0,107.626,0s-3.091,1.681-3.091,3.755S105.919,7.509,107.626,7.509Z" transform="translate(-59.892)" fill="#fff"/>
    <path id="Pfad_27" data-name="Pfad 27" d="M41.9,300.437c0-.126,0-.036,0,0Z" transform="translate(0 -287.195)" fill="#fff"/>
    <path id="Pfad_28" data-name="Pfad 28" d="M308.085,301.6c0-.035,0-.24,0,0Z" transform="translate(-254.512 -288.26)" fill="#fff"/>
    <path id="Pfad_29" data-name="Pfad 29" d="M53.579,183.033c-.057-3.612-.529-4.642-4.139-5.293a2.536,2.536,0,0,1-3.385,0c-3.571.644-4.071,1.658-4.137,5.176-.005.287-.008.3-.009.269,0,.062,0,.178,0,.38,0,0,.859,1.733,5.838,1.733s5.838-1.733,5.838-1.733c0-.129,0-.219,0-.281A2.322,2.322,0,0,1,53.579,183.033Z" transform="translate(-0.012 -169.943)" fill="#fff"/>
  </g>
</svg>
