<svg xmlns="http://www.w3.org/2000/svg" width="27.671" height="27.664" viewBox="0 0 27.671 27.664">
  <path id="Icon_awesome-instagram" data-name="Icon awesome-instagram" d="M13.833,8.977a7.093,7.093,0,1,0,7.093,7.093A7.082,7.082,0,0,0,13.833,8.977Zm0,11.7a4.611,4.611,0,1,1,4.611-4.611,4.62,4.62,0,0,1-4.611,4.611ZM22.87,8.687a1.654,1.654,0,1,1-1.654-1.654A1.651,1.651,0,0,1,22.87,8.687Zm4.7,1.679a8.187,8.187,0,0,0-2.235-5.8,8.241,8.241,0,0,0-5.8-2.235c-2.284-.13-9.13-.13-11.414,0a8.229,8.229,0,0,0-5.8,2.228,8.214,8.214,0,0,0-2.235,5.8c-.13,2.284-.13,9.13,0,11.414a8.187,8.187,0,0,0,2.235,5.8,8.251,8.251,0,0,0,5.8,2.235c2.284.13,9.13.13,11.414,0a8.187,8.187,0,0,0,5.8-2.235,8.241,8.241,0,0,0,2.235-5.8c.13-2.284.13-9.124,0-11.408ZM24.617,24.225a4.669,4.669,0,0,1-2.63,2.63c-1.821.722-6.142.556-8.155.556s-6.34.16-8.155-.556a4.669,4.669,0,0,1-2.63-2.63c-.722-1.821-.556-6.142-.556-8.155s-.16-6.34.556-8.155a4.669,4.669,0,0,1,2.63-2.63c1.821-.722,6.142-.556,8.155-.556s6.34-.16,8.155.556a4.669,4.669,0,0,1,2.63,2.63c.722,1.821.556,6.142.556,8.155S25.34,22.41,24.617,24.225Z" transform="translate(0.005 -2.238)" fill="#fff"/>
</svg>
