<svg id="Gruppe_536" data-name="Gruppe 536" xmlns="http://www.w3.org/2000/svg" xmlns:xlink="http://www.w3.org/1999/xlink" width="531.048" height="1337.057" viewBox="0 0 531.048 1337.057">
  <defs>
    <clipPath id="clip-path">
      <rect id="Rechteck_221" data-name="Rechteck 221" width="531.048" height="1337.057" fill="none" stroke="#0066b3" stroke-width="1"/>
    </clipPath>
  </defs>
  <g id="Gruppe_469" data-name="Gruppe 469" clip-path="url(#clip-path)">
    <path id="Pfad_330" data-name="Pfad 330" d="M529.548,2.247C474.874-1.6,418.083,9.279,372.485,39.691c-36.3,24.209-64.751,61.619-75.47,104.179-10.421,41.373-15.26,87.269,19.8,118.893,30.924,27.894,83.441,29.011,113.645.339s30.536-83.764-1.112-110.833c-12.715-10.875-28.907-16.914-45.233-20.576-85.092-19.091-178.341,26.858-222,102.348S122.939,408.2,166.23,483.9c22.657,39.62,55.1,74,70.557,116.947a165.255,165.255,0,0,1,1.451,106.75c-31.7,96.187-142.067,142.8-195.254,228.981-63.36,102.668-43.278,242.861-23.038,354.991l7.981,45.226" transform="translate(1.395 -0.003)" fill="none" stroke="#0066b3" stroke-miterlimit="10" stroke-width="3" stroke-dasharray="12 12"/>
  </g>
</svg>
