<svg xmlns="http://www.w3.org/2000/svg" width="27.655" height="27.655" viewBox="0 0 27.655 27.655">
  <path id="Icon_awesome-linkedin-in" data-name="Icon awesome-linkedin-in" d="M6.19,27.655H.457V9.192H6.19ZM3.32,6.673a3.336,3.336,0,1,1,3.32-3.352A3.348,3.348,0,0,1,3.32,6.673ZM27.649,27.655H21.928V18.667c0-2.142-.043-4.889-2.981-4.889-2.981,0-3.438,2.327-3.438,4.735v9.142H9.782V9.192h5.5V11.71h.08a6.025,6.025,0,0,1,5.425-2.982c5.8,0,6.869,3.821,6.869,8.784V27.655Z" transform="translate(0 -0.001)" fill="#fff"/>
</svg>
