<svg xmlns="http://www.w3.org/2000/svg" width="358.991" height="42.189" viewBox="0 0 358.991 42.189">
  <g id="Gruppe_512" data-name="Gruppe 512" transform="translate(-438 197)">
    <path id="Pfad_1" data-name="Pfad 1" d="M57.692,8.685q.182.567.324,1t.3.983c.108.35.2.672.283.962s.175.61.283.961c.108-.351.209-.678.3-.983s.186-.6.273-.9.18-.6.274-.9.2-.63.3-.983L62.591.87h2.835l-4.88,14.295H57.023L52.083.87H55.14Z" transform="translate(456.22 -196.695)" fill="#0066b3"/>
    <path id="Pfad_2" data-name="Pfad 2" d="M67.49,3.45a7.009,7.009,0,0,1,1.246.111,5.548,5.548,0,0,1,1.184.355,4.462,4.462,0,0,1,1.388.891,5.576,5.576,0,0,1,.86,1.053,4.774,4.774,0,0,1,.476.983,6.5,6.5,0,0,1,.192.657,5.028,5.028,0,0,1,.142.9c.013.263.02.449.02.557A6.062,6.062,0,0,1,72.7,10.91a5.433,5.433,0,0,1-.771,1.5,4.652,4.652,0,0,1-1.073,1.052,5.305,5.305,0,0,1-1.2.638,4.728,4.728,0,0,1-1.336.3q-.628.04-.85.04a7.069,7.069,0,0,1-1-.072,5.585,5.585,0,0,1-.983-.232,5.207,5.207,0,0,1-2.369-1.691,5.192,5.192,0,0,1-.819-1.519,5.946,5.946,0,0,1-.315-2.014,5.894,5.894,0,0,1,.486-2.43,5.307,5.307,0,0,1,1.073-1.579,3.759,3.759,0,0,1,.638-.506c.181-.108.313-.19.394-.244a7.192,7.192,0,0,1,1.143-.464A5.714,5.714,0,0,1,67.49,3.45m.02,2.025a2.323,2.323,0,0,0-.83.162,2.583,2.583,0,0,0-.466.232,1.873,1.873,0,0,0-.283.213,2.96,2.96,0,0,0-.749,1.083,4.35,4.35,0,0,0-.3,1.732,4.6,4.6,0,0,0,.254,1.6,3.571,3.571,0,0,0,.536,1.031,2.687,2.687,0,0,0,.456.437,1.842,1.842,0,0,0,.313.192,1.784,1.784,0,0,0,.657.212c.211.02.348.031.416.031a2.184,2.184,0,0,0,.992-.2,2.377,2.377,0,0,0,.628-.424,2.751,2.751,0,0,0,.718-1.145,5.221,5.221,0,0,0,.234-1.811,7.789,7.789,0,0,0-.173-1.338,2.582,2.582,0,0,0-.738-1.315,2.784,2.784,0,0,0-.668-.487,2.143,2.143,0,0,0-.992-.2" transform="translate(459.683 -195.793)" fill="#0066b3"/>
    <rect id="Rechteck_4" data-name="Rechteck 4" width="2.754" height="15.469" transform="translate(534.868 -197)" fill="#0066b3"/>
    <path id="Pfad_3" data-name="Pfad 3" d="M78.561,9.152c.175-.256.335-.482.476-.679s.306-.408.5-.638l2.389-2.976H85.1L81.153,9.537l4.454,5.932h-3.4L79.877,12.25q-.4-.549-.688-1T78.561,10.2v5.266H75.828V0h2.733Z" transform="translate(464.527 -197)" fill="#0066b3"/>
    <path id="Pfad_4" data-name="Pfad 4" d="M90.682,5.91q-.628-.182-1.145-.305a4.328,4.328,0,0,0-1.123-.1,2.815,2.815,0,0,0-1.377.294.92.92,0,0,0-.526.841.743.743,0,0,0,.061.273.628.628,0,0,0,.182.254,2.006,2.006,0,0,0,.567.313c.229.089.513.186.85.294s.641.2.871.283.418.155.567.223a2.9,2.9,0,0,1,1,.718,2.941,2.941,0,0,1,.517.83,2.733,2.733,0,0,1,.192.749c.02.223.031.374.031.456a3.871,3.871,0,0,1-.132.972,2.644,2.644,0,0,1-.5.971,3.714,3.714,0,0,1-.506.528,3.1,3.1,0,0,1-.506.354c-.162.088-.308.159-.435.213a2.7,2.7,0,0,1-.274.1,4.114,4.114,0,0,1-1.226.243c-.4.013-.657.019-.779.019-.3,0-.571-.008-.821-.03s-.493-.05-.728-.09-.481-.092-.729-.153-.524-.124-.821-.192l.142-2.308c.243.108.59.25,1.043.424a4.406,4.406,0,0,0,1.609.265,2.691,2.691,0,0,0,1.366-.3.927.927,0,0,0,.517-.83.738.738,0,0,0-.132-.445,1.261,1.261,0,0,0-.333-.315,2.655,2.655,0,0,0-.425-.223c-.15-.061-.283-.111-.4-.151l-.78-.274q-.375-.132-.729-.283A4.373,4.373,0,0,1,85.1,9.17a2.865,2.865,0,0,1-.6-.528A3.068,3.068,0,0,1,84,7.883a2.578,2.578,0,0,1-.223-1.145,3.129,3.129,0,0,1,.192-1.062,2.948,2.948,0,0,1,.719-1.062,3.335,3.335,0,0,1,1.022-.679A5.631,5.631,0,0,1,86.775,3.6a5.259,5.259,0,0,1,.86-.112c.236-.007.382-.011.436-.011a7.465,7.465,0,0,1,1.4.123q.648.121,1.4.283Z" transform="translate(467.308 -195.783)" fill="#0066b3"/>
    <path id="Pfad_5" data-name="Pfad 5" d="M93.661,0V6.52a3.394,3.394,0,0,1,.283-.435c.081-.1.155-.193.223-.275a4.046,4.046,0,0,1,1.073-.759,3.843,3.843,0,0,1,1.7-.374,6.985,6.985,0,0,1,.83.07,3.649,3.649,0,0,1,1.154.375,4.035,4.035,0,0,1,1.165.921,4.6,4.6,0,0,1,.9,1.712q.1.344.212.891A6.94,6.94,0,0,1,101.315,10a6.973,6.973,0,0,1-.5,2.894,5.039,5.039,0,0,1-1.265,1.824c-.081.067-.2.155-.344.262a2.921,2.921,0,0,1-.547.305,3.38,3.38,0,0,1-1.114.313c-.364.034-.594.05-.688.05a4.234,4.234,0,0,1-1.762-.324,2.962,2.962,0,0,1-1.114-.829,4.045,4.045,0,0,1-.274-.425,1.4,1.4,0,0,0-.151-.243v1.64H90.948V0Zm2.551,6.9a2.323,2.323,0,0,0-.83.162,2.281,2.281,0,0,0-.881.606,2.961,2.961,0,0,0-.516.841,3.818,3.818,0,0,0-.243.911,6.273,6.273,0,0,0-.061.821,5.236,5.236,0,0,0,.081.921,3.615,3.615,0,0,0,.3.922c.067.121.138.243.212.363a1.726,1.726,0,0,0,.274.344,2.02,2.02,0,0,0,.5.406,2.2,2.2,0,0,0,.466.2,1.339,1.339,0,0,0,.375.061h.243a3.692,3.692,0,0,0,.5-.061,1.627,1.627,0,0,0,.78-.4,2.523,2.523,0,0,0,.536-.659,3.818,3.818,0,0,0,.335-.769,4.112,4.112,0,0,0,.162-.768,6.4,6.4,0,0,0,.04-.679,5.61,5.61,0,0,0-.092-.993,3.794,3.794,0,0,0-.313-.971,2.355,2.355,0,0,0-.223-.394,2.136,2.136,0,0,0-.223-.274,3.348,3.348,0,0,0-.557-.386,1.72,1.72,0,0,0-.86-.2" transform="translate(469.816 -197)" fill="#0066b3"/>
    <path id="Pfad_6" data-name="Pfad 6" d="M106.8,14.262V12.7a3.66,3.66,0,0,1-.375.537,3.079,3.079,0,0,1-.779.638,3.687,3.687,0,0,1-1.184.455,6.468,6.468,0,0,1-1.185.111,4.279,4.279,0,0,1-1.793-.324,3.03,3.03,0,0,1-1.1-.819,2.7,2.7,0,0,1-.547-1.062,4.3,4.3,0,0,1-.142-1.054,3.167,3.167,0,0,1,.313-1.407,3,3,0,0,1,.7-.9,4.065,4.065,0,0,1,1.741-.869,11.386,11.386,0,0,1,2.673-.305h.121c.27,0,.509,0,.718.011s.448.024.719.05c-.027-.242-.054-.5-.081-.779a1.574,1.574,0,0,0-.3-.779,1.7,1.7,0,0,0-.647-.547,2.842,2.842,0,0,0-1.091-.243h-.263a5.011,5.011,0,0,0-1.3.182,8.4,8.4,0,0,0-.86.3l-.424.215a3.763,3.763,0,0,0-.647.435l-.081-2.391c.216-.08.441-.162.678-.242a8.016,8.016,0,0,1,.779-.223,9.654,9.654,0,0,1,.96-.171,9.245,9.245,0,0,1,1.2-.072c.256,0,.532.007.829.02a4.333,4.333,0,0,1,.88.131,5,5,0,0,1,.869.315,3.718,3.718,0,0,1,.819.525,5.6,5.6,0,0,1,.475.506,2.418,2.418,0,0,1,.435.831,3.962,3.962,0,0,1,.232,1.254q.03.731.031,1.257V10.8q0,.954.02,1.732t.061,1.732Zm-.061-4.8c-.174-.013-.347-.024-.514-.03s-.346-.011-.533-.011a7.247,7.247,0,0,0-1.875.212,1.744,1.744,0,0,0-1.127.819,1.433,1.433,0,0,0-.162.69,1.615,1.615,0,0,0,.08.476,1.339,1.339,0,0,0,.273.474,1.43,1.43,0,0,0,.5.366,1.936,1.936,0,0,0,.8.14,2.688,2.688,0,0,0,.614-.09,2.421,2.421,0,0,0,.756-.344,2.611,2.611,0,0,0,.7-.707,2.946,2.946,0,0,0,.433-1.185,3.565,3.565,0,0,0,.05-.506c.007-.189.011-.29.011-.3" transform="translate(472.875 -195.793)" fill="#0066b3"/>
    <path id="Pfad_7" data-name="Pfad 7" d="M115.917,14.252V9.129c-.013-.634-.041-1.138-.081-1.508a2.938,2.938,0,0,0-.283-1,1.707,1.707,0,0,0-.324-.436,1.971,1.971,0,0,0-.466-.313c-.067-.026-.171-.061-.313-.1a1.819,1.819,0,0,0-.5-.061,2.113,2.113,0,0,0-.537.05,1.993,1.993,0,0,0-.84.416A2.412,2.412,0,0,0,112,6.8a2.632,2.632,0,0,0-.314.749,5.59,5.59,0,0,0-.142.84c-.027.292-.04.591-.04.9v4.961h-2.774V6.193q0-.709-.02-1.276t-.061-1.276H111.3v1.64q.182-.243.4-.486a2.643,2.643,0,0,1,.607-.526l.4-.243a3.82,3.82,0,0,1,1.134-.445,5.891,5.891,0,0,1,1.114-.1,4.2,4.2,0,0,1,1.266.162,3.815,3.815,0,0,1,.819.364,3.7,3.7,0,0,1,.4.294,3.054,3.054,0,0,1,.516.6,2.511,2.511,0,0,1,.374.709,4.374,4.374,0,0,1,.193.85q.061.466.081,1.053t.04,1.316v5.426Z" transform="translate(476.008 -195.782)" fill="#0066b3"/>
    <path id="Pfad_8" data-name="Pfad 8" d="M120.8,9.152c.175-.256.335-.482.476-.679s.306-.408.5-.638l2.389-2.976h3.179l-3.948,4.679,4.454,5.932h-3.4l-2.328-3.219q-.4-.549-.688-1T120.8,10.2v5.266h-2.733V0H120.8Z" transform="translate(479.303 -197)" fill="#0066b3"/>
    <path id="Pfad_9" data-name="Pfad 9" d="M132.831,9.916a3.54,3.54,0,0,1,.1.394,1.952,1.952,0,0,0,.283.657,2.483,2.483,0,0,0,.618.719,3.078,3.078,0,0,0,.729.425,3.367,3.367,0,0,0,.759.212,4.69,4.69,0,0,0,.729.062,5.658,5.658,0,0,0,1.246-.143,5.348,5.348,0,0,0,1.245-.445,3.117,3.117,0,0,0,.5-.263c.169-.107.273-.175.313-.2l.04,2.368a14.144,14.144,0,0,1-1.467.526,7.667,7.667,0,0,1-2.2.263h-.364c-.162,0-.347-.009-.556-.03a6.4,6.4,0,0,1-.7-.112,5.506,5.506,0,0,1-.769-.223,5.306,5.306,0,0,1-1.2-.657,4.308,4.308,0,0,1-1.012-1.033,5.205,5.205,0,0,1-.7-1.447,6.3,6.3,0,0,1-.263-1.9A6.663,6.663,0,0,1,130.34,7.4a7.3,7.3,0,0,1,.364-1.092q.1-.184.2-.385c.067-.136.108-.216.121-.244.068-.093.132-.185.193-.273a1.749,1.749,0,0,1,.212-.254,5.129,5.129,0,0,1,1.519-1.215A5.67,5.67,0,0,1,137.5,3.88a4.242,4.242,0,0,1,1.479,1.185,4.77,4.77,0,0,1,.84,1.72,7.929,7.929,0,0,1,.263,2.057v.545c0,.162-.007.337-.02.528Zm4.718-1.925q-.04-.445-.121-.88a2.043,2.043,0,0,0-.4-.861,2.075,2.075,0,0,0-.506-.5,2.218,2.218,0,0,0-.506-.254,2.194,2.194,0,0,0-.435-.1c-.13-.013-.22-.02-.274-.02s-.135.007-.283.02a2.655,2.655,0,0,0-.516.112,2.348,2.348,0,0,0-.609.3,2.26,2.26,0,0,0-.576.6,2.683,2.683,0,0,0-.394.973c-.047.3-.078.5-.092.606Z" transform="translate(483.533 -195.798)" fill="#0066b3"/>
    <path id="Pfad_10" data-name="Pfad 10" d="M150.517,3.849a10.94,10.94,0,0,0-1.458-.557,7.5,7.5,0,0,0-2.207-.273h-.4a4.2,4.2,0,0,0-.668.061,6.962,6.962,0,0,0-.841.192,4.044,4.044,0,0,0-.88.375c-.027.012-.119.066-.274.162a4.345,4.345,0,0,0-.435.3A4.547,4.547,0,0,0,142.2,5.69a5.646,5.646,0,0,0-.425,2.431c0,.135.014.381.041.738a4.78,4.78,0,0,0,.263,1.185,4.317,4.317,0,0,0,.679,1.3,4.662,4.662,0,0,0,.86.86,3.9,3.9,0,0,0,.86.506,4.364,4.364,0,0,0,.679.232,3.838,3.838,0,0,0,.931.162c.3.015.493.022.587.022a5.022,5.022,0,0,0,1.093-.1q.445-.1.729-.182V9.315h-3V7.068h5.669v7.551c-.364.136-.648.229-.85.283s-.391.1-.567.143q-.445.1-1.367.243a14.037,14.037,0,0,1-2.115.142,8.729,8.729,0,0,1-3.554-.629,6.835,6.835,0,0,1-2.257-1.537,6.983,6.983,0,0,1-1.205-2,8.208,8.208,0,0,1-.556-3.109,10.724,10.724,0,0,1,.1-1.436,7.4,7.4,0,0,1,.364-1.489,6.517,6.517,0,0,1,.738-1.447A6.244,6.244,0,0,1,141.1,2.47a5.954,5.954,0,0,1,1.417-.921,9.355,9.355,0,0,1,1.438-.537,7.912,7.912,0,0,1,.921-.181c.3-.042.584-.072.841-.092S146.2.706,146.4.7s.342-.009.436-.009a12.289,12.289,0,0,1,1.3.061c.378.039.718.088,1.022.142a7.686,7.686,0,0,1,.832.192c.248.074.5.146.738.212Z" transform="translate(486.519 -196.758)" fill="#0066b3"/>
    <path id="Pfad_11" data-name="Pfad 11" d="M59.644,16.949a.938.938,0,0,1,.182-.02h.2a8.587,8.587,0,0,1,1.174.082,6.8,6.8,0,0,1,1.154.262,6.068,6.068,0,0,1,2.187,1.336,5.632,5.632,0,0,1,.931,1.235,8.039,8.039,0,0,1,.628,1.438,7.946,7.946,0,0,1,.374,1.519,12.912,12.912,0,0,1,.132,1.539,10.1,10.1,0,0,1-.486,3.1,7.872,7.872,0,0,1-.628,1.377,5.75,5.75,0,0,1-.911,1.2,5.3,5.3,0,0,1-1.123.89,6.642,6.642,0,0,1-1.286.587,5.98,5.98,0,0,1-1.3.294,9.67,9.67,0,0,1-1.316.05,8.844,8.844,0,0,1-1.316-.08,8.03,8.03,0,0,1-.871-.184,5.8,5.8,0,0,1-2.916-1.741,6.9,6.9,0,0,1-1.539-2.976,7.178,7.178,0,0,1-.232-1.438c-.022-.432-.038-.736-.051-.91,0-.121,0-.355.011-.7a7.7,7.7,0,0,1,.142-1.235,9.023,9.023,0,0,1,.435-1.529,5.888,5.888,0,0,1,.891-1.559c.054-.067.1-.121.132-.161a1.611,1.611,0,0,1,.131-.143A6.12,6.12,0,0,1,55.7,18.063a7.4,7.4,0,0,1,1.316-.647,6.66,6.66,0,0,1,1.073-.305c.305-.053.51-.086.618-.1a4.278,4.278,0,0,1,.466-.051c.135-.007.29-.011.466-.011m.02,2.187a5.983,5.983,0,0,0-.819.1,3.04,3.04,0,0,0-.78.265,3.911,3.911,0,0,0-1.033.788,5.317,5.317,0,0,0-.962,1.64,7.047,7.047,0,0,0-.394,2.531,6.981,6.981,0,0,0,.385,2.47,4.653,4.653,0,0,0,.952,1.6,3.179,3.179,0,0,0,1.3.871,4.144,4.144,0,0,0,1.357.243c.067,0,.178,0,.335-.011a3.123,3.123,0,0,0,.545-.08,3.662,3.662,0,0,0,.679-.234,3.049,3.049,0,0,0,.709-.445c.081-.067.189-.167.324-.3a3.672,3.672,0,0,0,.4-.486,4.516,4.516,0,0,0,.466-.983,7.2,7.2,0,0,0,.263-.961c.04-.188.084-.441.131-.759a6.59,6.59,0,0,0,.051-1.164,8.242,8.242,0,0,0-.354-2.269,5.04,5.04,0,0,0-.7-1.478,3.137,3.137,0,0,0-.475-.517c-.142-.113-.254-.2-.335-.252a3.144,3.144,0,0,0-.648-.344,3.367,3.367,0,0,0-.607-.171,2.919,2.919,0,0,0-.506-.051Z" transform="translate(456.414 -191.078)" fill="#0066b3"/>
    <rect id="Rechteck_5" data-name="Rechteck 5" width="2.754" height="15.469" transform="translate(525.21 -174.998)" fill="#0066b3"/>
    <path id="Pfad_12" data-name="Pfad 12" d="M78.751,16.3V31.768H76.139V29.7c-.067.162-.128.319-.182.467a1.633,1.633,0,0,1-.283.466,3.488,3.488,0,0,1-1.145.921,3.851,3.851,0,0,1-1.832.394c-.135,0-.371-.018-.709-.05a3.267,3.267,0,0,1-1.093-.335,4.3,4.3,0,0,1-1.883-1.8,6.438,6.438,0,0,1-.729-3.26,7.127,7.127,0,0,1,.394-2.54,5.313,5.313,0,0,1,.983-1.67,3.759,3.759,0,0,1,1.1-.841,5.98,5.98,0,0,1,.74-.294,3.611,3.611,0,0,1,.779-.14C72.517,21,72.69,21,72.8,21a4.674,4.674,0,0,1,1.469.252,2.768,2.768,0,0,1,1.346,1.065,3.885,3.885,0,0,1,.212.354c.062.115.146.286.254.516V16.3Zm-5.264,6.945a2.277,2.277,0,0,0-.83.142,1.929,1.929,0,0,0-.556.335,1.766,1.766,0,0,0-.315.354,3,3,0,0,0-.466.952,4.544,4.544,0,0,0-.162,1.439v.3a4.022,4.022,0,0,0,.04.526,4.981,4.981,0,0,0,.132.648,2.874,2.874,0,0,0,.273.67c.04.066.1.162.182.283a2.064,2.064,0,0,0,.385.4,2.1,2.1,0,0,0,.688.4,2.224,2.224,0,0,0,.688.111,3.95,3.95,0,0,0,.445-.04,1.6,1.6,0,0,0,.668-.262,2.473,2.473,0,0,0,.638-.557,2.964,2.964,0,0,0,.5-1.022,3.132,3.132,0,0,0,.182-.852q.02-.383.02-.526a5.106,5.106,0,0,0-.05-.678,4.642,4.642,0,0,0-.173-.759,3.169,3.169,0,0,0-.344-.74,2.686,2.686,0,0,0-.567-.638,2.152,2.152,0,0,0-.547-.324,2.024,2.024,0,0,0-.83-.162" transform="translate(461.887 -191.298)" fill="#0066b3"/>
    <path id="Pfad_13" data-name="Pfad 13" d="M80.346,26.215a3.537,3.537,0,0,1,.1.394,1.952,1.952,0,0,0,.283.657,2.483,2.483,0,0,0,.618.719,3.078,3.078,0,0,0,.729.425,3.368,3.368,0,0,0,.759.212,4.69,4.69,0,0,0,.729.062,5.658,5.658,0,0,0,1.246-.143,5.348,5.348,0,0,0,1.245-.445,3.118,3.118,0,0,0,.5-.263c.169-.107.273-.175.313-.2L86.906,30a14.144,14.144,0,0,1-1.467.526,7.668,7.668,0,0,1-2.2.263h-.364c-.162,0-.347-.009-.556-.03a6.4,6.4,0,0,1-.7-.112,5.5,5.5,0,0,1-.769-.223,5.305,5.305,0,0,1-1.2-.657,4.308,4.308,0,0,1-1.012-1.033,5.2,5.2,0,0,1-.7-1.447,6.3,6.3,0,0,1-.263-1.9,6.663,6.663,0,0,1,.182-1.682,7.3,7.3,0,0,1,.364-1.092q.1-.184.2-.385c.068-.136.108-.216.121-.244.067-.093.132-.185.193-.273a1.748,1.748,0,0,1,.212-.254,5.129,5.129,0,0,1,1.519-1.215,5.67,5.67,0,0,1,4.545-.061,4.242,4.242,0,0,1,1.479,1.185,4.769,4.769,0,0,1,.84,1.72,7.928,7.928,0,0,1,.263,2.057v.545c0,.162-.007.337-.02.528Zm4.718-1.925q-.041-.445-.121-.88a2.043,2.043,0,0,0-.4-.861,2.076,2.076,0,0,0-.506-.5,2.218,2.218,0,0,0-.506-.254,2.2,2.2,0,0,0-.435-.1c-.13-.013-.22-.02-.274-.02s-.135.007-.283.02a2.655,2.655,0,0,0-.516.112,2.349,2.349,0,0,0-.609.3,2.26,2.26,0,0,0-.576.6,2.684,2.684,0,0,0-.394.973c-.047.3-.078.5-.092.606Z" transform="translate(465.172 -190.096)" fill="#0066b3"/>
    <path id="Pfad_14" data-name="Pfad 14" d="M93.822,30.552V25.429c-.013-.634-.041-1.138-.081-1.508a2.938,2.938,0,0,0-.283-1,1.706,1.706,0,0,0-.324-.436,1.971,1.971,0,0,0-.466-.313c-.067-.026-.171-.061-.313-.1a1.819,1.819,0,0,0-.5-.061,2.113,2.113,0,0,0-.537.05,1.993,1.993,0,0,0-.84.416,2.412,2.412,0,0,0-.576.628,2.631,2.631,0,0,0-.315.749,5.589,5.589,0,0,0-.142.84c-.027.292-.04.591-.04.9v4.961H86.634V22.493q0-.709-.02-1.276t-.061-1.276h2.652v1.64q.182-.243.4-.486a2.643,2.643,0,0,1,.607-.526l.4-.243a3.82,3.82,0,0,1,1.134-.445,5.891,5.891,0,0,1,1.114-.1,4.2,4.2,0,0,1,1.266.162,3.815,3.815,0,0,1,.819.364,3.7,3.7,0,0,1,.4.294,3.053,3.053,0,0,1,.516.6,2.512,2.512,0,0,1,.374.709,4.374,4.374,0,0,1,.193.85q.061.466.081,1.053t.04,1.316v5.426Z" transform="translate(468.279 -190.08)" fill="#0066b3"/>
    <path id="Pfad_15" data-name="Pfad 15" d="M98.746,16.3v6.52a3.239,3.239,0,0,1,.285-.435c.08-.1.154-.193.221-.275a4.033,4.033,0,0,1,1.074-.759,3.832,3.832,0,0,1,1.7-.374,7.025,7.025,0,0,1,.831.07,3.642,3.642,0,0,1,1.153.375,4.035,4.035,0,0,1,1.165.921,4.6,4.6,0,0,1,.9,1.712q.1.344.213.891A6.94,6.94,0,0,1,106.4,26.3a6.972,6.972,0,0,1-.5,2.894,5.054,5.054,0,0,1-1.263,1.824c-.082.067-.2.155-.346.262a2.879,2.879,0,0,1-.547.305,3.383,3.383,0,0,1-1.112.313c-.366.034-.6.05-.69.05a4.238,4.238,0,0,1-1.762-.324,2.946,2.946,0,0,1-1.112-.829,3.861,3.861,0,0,1-.275-.425,1.4,1.4,0,0,0-.151-.243v1.64H96.034V16.3Zm2.553,6.9a2.325,2.325,0,0,0-.831.162,2.292,2.292,0,0,0-.881.606,2.926,2.926,0,0,0-.514.841,3.7,3.7,0,0,0-.243.911,6.273,6.273,0,0,0-.061.821,5.235,5.235,0,0,0,.08.921,3.669,3.669,0,0,0,.3.922c.069.121.138.243.212.363a1.726,1.726,0,0,0,.274.344,2.046,2.046,0,0,0,.5.406,2.234,2.234,0,0,0,.466.2,1.347,1.347,0,0,0,.375.061h.243a3.7,3.7,0,0,0,.5-.061,1.63,1.63,0,0,0,.779-.4,2.5,2.5,0,0,0,.536-.659,3.9,3.9,0,0,0,.336-.769,4.215,4.215,0,0,0,.161-.768,6.057,6.057,0,0,0,.04-.679,5.736,5.736,0,0,0-.09-.993,3.8,3.8,0,0,0-.314-.971,2.359,2.359,0,0,0-.223-.394,1.93,1.93,0,0,0-.223-.274,3.348,3.348,0,0,0-.557-.386,1.711,1.711,0,0,0-.858-.2" transform="translate(471.595 -191.298)" fill="#0066b3"/>
    <path id="Pfad_16" data-name="Pfad 16" d="M108.057,19.9v5.345c0,.3.007.59.02.881a4.1,4.1,0,0,0,.121.83,2.507,2.507,0,0,0,.313.729,1.54,1.54,0,0,0,.6.536,1.6,1.6,0,0,0,.607.213c.189.02.317.031.385.031a2.184,2.184,0,0,0,.992-.2,1.83,1.83,0,0,0,.961-.962,2.834,2.834,0,0,1,.153-.313,4.032,4.032,0,0,0,.254-1.012,10.133,10.133,0,0,0,.05-1.012V19.9h2.733v7.026q.041.992.061,1.793t.061,1.791h-2.571l-.081-1.66q-.121.2-.283.425a3.17,3.17,0,0,1-.567.548,4.464,4.464,0,0,1-1.053.6,4.184,4.184,0,0,1-1.62.273,3.939,3.939,0,0,1-1.772-.313,3.617,3.617,0,0,1-1.123-.8,3.055,3.055,0,0,1-.567-.9,4.974,4.974,0,0,1-.293-1,7.357,7.357,0,0,1-.112-1c-.013-.332-.02-.63-.02-.9V19.9Z" transform="translate(474.838 -190.039)" fill="#0066b3"/>
    <path id="Pfad_17" data-name="Pfad 17" d="M121.105,22.447c-.081-.027-.189-.057-.324-.09a2.058,2.058,0,0,0-.506-.051c-.081,0-.225.009-.435.031a2.419,2.419,0,0,0-.7.192,2.5,2.5,0,0,0-.749.516,2.347,2.347,0,0,0-.567,1,2.169,2.169,0,0,0-.142.506q-.04.263-.081.749-.02.3-.02.547v4.7h-2.754V22.69q0-.769-.009-1.377c-.008-.4-.024-.863-.051-1.377h2.592v2.551a5.914,5.914,0,0,1,.182-.618c.054-.14.115-.279.182-.414a2.965,2.965,0,0,1,2.632-1.66,3.611,3.611,0,0,1,.375.02,3.722,3.722,0,0,1,.374.061Z" transform="translate(478.149 -190.075)" fill="#0066b3"/>
    <path id="Pfad_18" data-name="Pfad 18" d="M128.294,19.951h2.632V27.91c0,.7-.014,1.336-.04,1.9a12.56,12.56,0,0,1-.162,1.548,5.925,5.925,0,0,1-.354,1.255,3.768,3.768,0,0,1-.638,1.023,3.652,3.652,0,0,1-.526.506,3.963,3.963,0,0,1-.385.262,5.066,5.066,0,0,1-1.093.528,6.149,6.149,0,0,1-1.012.252,6.553,6.553,0,0,1-.819.081c-.236.007-.4.011-.5.011a9.24,9.24,0,0,1-1.71-.143c-.506-.093-.875-.175-1.1-.242l-.506-.182-.506-.182.243-2.389a6.585,6.585,0,0,0,1.913.759,7.43,7.43,0,0,0,1.226.151,5.744,5.744,0,0,0,.83-.069,3.754,3.754,0,0,0,.911-.265,2.808,2.808,0,0,0,.819-.547,2.135,2.135,0,0,0,.557-.9,3.31,3.31,0,0,0,.151-.638c.034-.235.065-.557.092-.962.027-.216.043-.4.05-.566s.018-.351.031-.567c-.108.189-.2.347-.283.475a3.014,3.014,0,0,1-.223.315,3.975,3.975,0,0,1-.952.84,3.758,3.758,0,0,1-.911.414,3.527,3.527,0,0,1-.738.143c-.211.013-.355.019-.436.019a3.6,3.6,0,0,1-1.346-.223,4.416,4.416,0,0,1-.881-.445,3.109,3.109,0,0,1-.5-.394c-.128-.127-.227-.227-.294-.293a4.388,4.388,0,0,1-.557-.749L121,28.151a5.945,5.945,0,0,1-.252-.759c-.074-.277-.132-.524-.173-.738s-.074-.475-.1-.74a7.281,7.281,0,0,1-.04-.74,7.415,7.415,0,0,1,.111-1.2,6.541,6.541,0,0,1,.375-1.316,5.494,5.494,0,0,1,.7-1.246A4.209,4.209,0,0,1,123.84,19.9a4.365,4.365,0,0,1,1.134-.151,4.711,4.711,0,0,1,1.347.232,3.549,3.549,0,0,1,1.346.759,3.117,3.117,0,0,1,.283.283c.081.1.2.238.344.427Zm-2.551,1.986a2.188,2.188,0,0,0-.79.14,2.262,2.262,0,0,0-1.195,1.012,4,4,0,0,0-.425,2.006c0,.216.011.452.031.707a4.442,4.442,0,0,0,.131.78,3.379,3.379,0,0,0,.3.769,2.492,2.492,0,0,0,.547.679,2.292,2.292,0,0,0,.517.324,1.815,1.815,0,0,0,.8.162c.04,0,.124-.007.252-.022a1.919,1.919,0,0,0,.436-.1,2.786,2.786,0,0,0,.526-.243,2.3,2.3,0,0,0,.547-.445,2.341,2.341,0,0,0,.607-1.052,6.6,6.6,0,0,0,.182-1.074.872.872,0,0,0,.02-.161v-.184a4.44,4.44,0,0,0-.05-.748c-.034-.189-.065-.351-.092-.487a3.068,3.068,0,0,0-.86-1.488,2.111,2.111,0,0,0-1.489-.576" transform="translate(480.132 -190.091)" fill="#0066b3"/>
    <rect id="Rechteck_6" data-name="Rechteck 6" width="5.345" height="2.269" transform="translate(613.286 -166.151)" fill="#0066b3"/>
    <path id="Pfad_19" data-name="Pfad 19" d="M138.864,29.055h5.528v2.409h-8.443V17.17h2.916Z" transform="translate(485.559 -190.993)" fill="#0066b3"/>
    <path id="Pfad_20" data-name="Pfad 20" d="M149.9,30.562V29a3.661,3.661,0,0,1-.375.537,3.079,3.079,0,0,1-.779.638,3.687,3.687,0,0,1-1.184.455,6.468,6.468,0,0,1-1.185.111,4.279,4.279,0,0,1-1.793-.324,3.03,3.03,0,0,1-1.1-.819,2.7,2.7,0,0,1-.547-1.062,4.3,4.3,0,0,1-.142-1.054,3.167,3.167,0,0,1,.313-1.407,3,3,0,0,1,.7-.9,4.065,4.065,0,0,1,1.741-.869A11.386,11.386,0,0,1,148.215,24h.121c.27,0,.509,0,.718.011s.448.024.719.05c-.027-.242-.054-.5-.081-.779a1.574,1.574,0,0,0-.3-.779,1.7,1.7,0,0,0-.647-.547,2.842,2.842,0,0,0-1.091-.243h-.263a5.011,5.011,0,0,0-1.3.182,8.4,8.4,0,0,0-.86.3l-.424.215a3.765,3.765,0,0,0-.647.435l-.081-2.391c.216-.08.441-.162.678-.242a8.016,8.016,0,0,1,.779-.223,9.652,9.652,0,0,1,.96-.171,9.245,9.245,0,0,1,1.2-.072c.257,0,.532.007.829.02a4.332,4.332,0,0,1,.88.131,5,5,0,0,1,.869.315,3.718,3.718,0,0,1,.819.525,5.6,5.6,0,0,1,.475.506,2.419,2.419,0,0,1,.435.831,3.962,3.962,0,0,1,.232,1.254q.03.731.031,1.257V27.1q0,.954.02,1.732t.061,1.732Zm-.061-4.8c-.174-.013-.347-.024-.514-.03s-.346-.011-.533-.011a7.247,7.247,0,0,0-1.875.212,1.744,1.744,0,0,0-1.127.819,1.434,1.434,0,0,0-.162.69,1.614,1.614,0,0,0,.08.476,1.339,1.339,0,0,0,.273.474,1.429,1.429,0,0,0,.5.366,1.936,1.936,0,0,0,.8.14,2.688,2.688,0,0,0,.614-.09,2.422,2.422,0,0,0,.756-.344,2.612,2.612,0,0,0,.7-.707,2.946,2.946,0,0,0,.433-1.185,3.572,3.572,0,0,0,.05-.506c.007-.189.011-.29.011-.3" transform="translate(487.952 -190.091)" fill="#0066b3"/>
    <path id="Pfad_21" data-name="Pfad 21" d="M159.072,30.552V25.429c-.014-.634-.041-1.138-.081-1.508a2.938,2.938,0,0,0-.283-1,1.706,1.706,0,0,0-.324-.436,1.97,1.97,0,0,0-.466-.313c-.067-.026-.171-.061-.313-.1a1.819,1.819,0,0,0-.5-.061,2.113,2.113,0,0,0-.537.05,1.993,1.993,0,0,0-.84.416,2.412,2.412,0,0,0-.576.628,2.631,2.631,0,0,0-.315.749,5.59,5.59,0,0,0-.142.84c-.027.292-.04.591-.04.9v4.961h-2.774V22.493q0-.709-.02-1.276t-.061-1.276h2.652v1.64q.182-.243.4-.486a2.643,2.643,0,0,1,.607-.526l.4-.243a3.82,3.82,0,0,1,1.134-.445,5.89,5.89,0,0,1,1.114-.1,4.2,4.2,0,0,1,1.266.162,3.814,3.814,0,0,1,.819.364,3.7,3.7,0,0,1,.4.294,3.054,3.054,0,0,1,.516.6,2.512,2.512,0,0,1,.374.709,4.375,4.375,0,0,1,.193.85q.061.466.081,1.053t.04,1.316v5.426Z" transform="translate(491.105 -190.08)" fill="#0066b3"/>
    <path id="Pfad_22" data-name="Pfad 22" d="M171.286,16.3V31.768h-2.612V29.7c-.068.162-.128.319-.182.467a1.633,1.633,0,0,1-.283.466,3.488,3.488,0,0,1-1.145.921,3.851,3.851,0,0,1-1.832.394c-.135,0-.371-.018-.709-.05a3.267,3.267,0,0,1-1.093-.335,4.3,4.3,0,0,1-1.883-1.8,6.438,6.438,0,0,1-.729-3.26,7.127,7.127,0,0,1,.394-2.54,5.313,5.313,0,0,1,.983-1.67,3.76,3.76,0,0,1,1.1-.841,5.983,5.983,0,0,1,.74-.294,3.611,3.611,0,0,1,.779-.14c.236-.013.409-.022.517-.022a4.673,4.673,0,0,1,1.469.252,2.768,2.768,0,0,1,1.346,1.065,3.883,3.883,0,0,1,.212.354c.062.115.146.286.254.516V16.3Zm-5.264,6.945a2.277,2.277,0,0,0-.83.142,1.929,1.929,0,0,0-.556.335,1.766,1.766,0,0,0-.315.354,2.994,2.994,0,0,0-.466.952,4.543,4.543,0,0,0-.162,1.439v.3a4.025,4.025,0,0,0,.04.526,4.984,4.984,0,0,0,.132.648,2.875,2.875,0,0,0,.273.67c.04.066.1.162.182.283a2.065,2.065,0,0,0,.385.4,2.1,2.1,0,0,0,.688.4,2.225,2.225,0,0,0,.688.111,3.95,3.95,0,0,0,.445-.04,1.6,1.6,0,0,0,.668-.262,2.473,2.473,0,0,0,.638-.557,2.964,2.964,0,0,0,.5-1.022,3.133,3.133,0,0,0,.182-.852q.02-.383.02-.526a5.1,5.1,0,0,0-.05-.678,4.638,4.638,0,0,0-.173-.759,3.17,3.17,0,0,0-.344-.74,2.686,2.686,0,0,0-.567-.638,2.153,2.153,0,0,0-.547-.324,2.024,2.024,0,0,0-.83-.162" transform="translate(494.259 -191.298)" fill="#0066b3"/>
    <path id="Pfad_23" data-name="Pfad 23" d="M178.843,17.17c.472.014.981.034,1.529.061a10.736,10.736,0,0,1,1.649.212,7.8,7.8,0,0,1,1.65.547,5.761,5.761,0,0,1,1.55,1.062c.067.082.165.193.294.336s.266.306.414.5a6.433,6.433,0,0,1,.881,1.73,7.8,7.8,0,0,1,.333,2.6c0,.3-.007.54-.02.729s-.027.35-.041.486c-.013.108-.043.3-.092.576a7.014,7.014,0,0,1-.252.973,7.875,7.875,0,0,1-.516,1.193,5.618,5.618,0,0,1-.881,1.224,5.758,5.758,0,0,1-1.569,1.2,7.168,7.168,0,0,1-1.721.617,9.618,9.618,0,0,1-1.732.223q-.85.03-1.579.031h-3.584V17.17Zm-.769,12.088q.466,0,.983-.011a9.163,9.163,0,0,0,1.042-.08,6.375,6.375,0,0,0,1.042-.234,4.015,4.015,0,0,0,.983-.466,3.222,3.222,0,0,0,.516-.4l.315-.313a3.423,3.423,0,0,0,.3-.386,4.649,4.649,0,0,0,.506-.981,6.612,6.612,0,0,0,.273-.922,4.379,4.379,0,0,0,.1-.738c.007-.209.009-.354.009-.435a5.12,5.12,0,0,0-.274-1.813,5.494,5.494,0,0,0-.6-1.185,4.048,4.048,0,0,0-1.811-1.488,7.875,7.875,0,0,0-2.947-.455h-.445Z" transform="translate(499.275 -190.993)" fill="#0066b3"/>
    <path id="Pfad_24" data-name="Pfad 24" d="M187.956,26.215a3.547,3.547,0,0,1,.1.394,1.952,1.952,0,0,0,.283.657,2.483,2.483,0,0,0,.618.719,3.077,3.077,0,0,0,.729.425,3.367,3.367,0,0,0,.759.212,4.689,4.689,0,0,0,.729.062,5.659,5.659,0,0,0,1.246-.143,5.349,5.349,0,0,0,1.245-.445,3.117,3.117,0,0,0,.5-.263c.169-.107.273-.175.313-.2L194.516,30a14.142,14.142,0,0,1-1.467.526,7.668,7.668,0,0,1-2.2.263h-.364c-.162,0-.347-.009-.556-.03a6.4,6.4,0,0,1-.7-.112,5.505,5.505,0,0,1-.769-.223,5.306,5.306,0,0,1-1.2-.657,4.309,4.309,0,0,1-1.012-1.033,5.206,5.206,0,0,1-.7-1.447,6.3,6.3,0,0,1-.263-1.9,6.665,6.665,0,0,1,.182-1.682,7.3,7.3,0,0,1,.364-1.092q.1-.184.2-.385c.068-.136.108-.216.121-.244.068-.093.132-.185.193-.273a1.746,1.746,0,0,1,.212-.254,5.129,5.129,0,0,1,1.519-1.215,5.67,5.67,0,0,1,4.545-.061,4.242,4.242,0,0,1,1.479,1.185,4.769,4.769,0,0,1,.84,1.72,7.926,7.926,0,0,1,.263,2.057v.545c0,.162-.007.337-.02.528Zm4.718-1.925q-.04-.445-.121-.88a2.043,2.043,0,0,0-.4-.861,2.075,2.075,0,0,0-.506-.5,2.151,2.151,0,0,0-.941-.355c-.13-.013-.22-.02-.274-.02s-.135.007-.283.02a2.655,2.655,0,0,0-.516.112,2.348,2.348,0,0,0-.609.3,2.26,2.26,0,0,0-.576.6,2.684,2.684,0,0,0-.394.973c-.047.3-.078.5-.092.606Z" transform="translate(502.817 -190.096)" fill="#0066b3"/>
    <rect id="Rechteck_7" data-name="Rechteck 7" width="2.754" height="15.469" transform="translate(700.127 -174.998)" fill="#0066b3"/>
    <path id="Pfad_25" data-name="Pfad 25" d="M214.112,30.557h-2.733V25.11a14.192,14.192,0,0,0-.081-1.66,1.568,1.568,0,0,0-.587-1.073,1.478,1.478,0,0,0-.618-.263,3.739,3.739,0,0,0-.374-.04,1.578,1.578,0,0,0-.709.142,1.956,1.956,0,0,0-.983,1.012,4.1,4.1,0,0,0-.283.871,5.564,5.564,0,0,0-.111.88c-.014.292-.02.545-.02.76q-.02.2-.02.364v4.454h-2.733V24.523c0-.148,0-.32-.011-.517a3.472,3.472,0,0,0-.07-.586,2.424,2.424,0,0,0-.193-.567,1.5,1.5,0,0,0-.394-.5,1.131,1.131,0,0,0-.578-.283,3.741,3.741,0,0,0-.374-.04,2.832,2.832,0,0,0-.466.07,1.749,1.749,0,0,0-.709.355,2.255,2.255,0,0,0-.79,1.185,7.086,7.086,0,0,0-.2,1.872v5.042h-2.754V21.931q-.02-.547-.031-.992t-.03-.992h2.632v1.62a6.374,6.374,0,0,1,.4-.517,3.425,3.425,0,0,1,.313-.313,3.216,3.216,0,0,1,.83-.556,4.469,4.469,0,0,1,.8-.283,4.089,4.089,0,0,1,.648-.112c.182-.013.308-.02.375-.02a3.855,3.855,0,0,1,.668.061,3.273,3.273,0,0,1,.7.212,3.089,3.089,0,0,1,.678.406,3.025,3.025,0,0,1,.607.657c.081.135.142.247.182.333s.094.2.162.335a4.012,4.012,0,0,1,.324-.475c.094-.115.182-.213.263-.294a3.012,3.012,0,0,1,.911-.729,4.948,4.948,0,0,1,.9-.355,3.351,3.351,0,0,1,.729-.121c.209-.007.348-.009.416-.009s.229.007.445.02a2.717,2.717,0,0,1,.738.171,3.068,3.068,0,0,1,1.631,1.469,3.927,3.927,0,0,1,.435,1.377,12.869,12.869,0,0,1,.072,1.357Z" transform="translate(507.356 -190.086)" fill="#0066b3"/>
    <path id="Pfad_26" data-name="Pfad 26" d="M214.311,26.215a3.539,3.539,0,0,1,.1.394,1.952,1.952,0,0,0,.283.657,2.484,2.484,0,0,0,.618.719,3.079,3.079,0,0,0,.729.425,3.368,3.368,0,0,0,.759.212,4.69,4.69,0,0,0,.729.062,5.659,5.659,0,0,0,1.246-.143,5.348,5.348,0,0,0,1.245-.445,3.118,3.118,0,0,0,.5-.263c.169-.107.273-.175.313-.2L220.871,30a14.147,14.147,0,0,1-1.467.526,7.668,7.668,0,0,1-2.2.263h-.364c-.162,0-.347-.009-.556-.03a6.4,6.4,0,0,1-.7-.112,5.5,5.5,0,0,1-.769-.223,5.305,5.305,0,0,1-1.2-.657,4.308,4.308,0,0,1-1.012-1.033,5.2,5.2,0,0,1-.7-1.447,6.3,6.3,0,0,1-.263-1.9,6.664,6.664,0,0,1,.182-1.682,7.3,7.3,0,0,1,.364-1.092q.1-.184.2-.385c.068-.136.108-.216.122-.244.067-.093.132-.185.193-.273a1.746,1.746,0,0,1,.212-.254,5.129,5.129,0,0,1,1.519-1.215,5.67,5.67,0,0,1,4.545-.061,4.242,4.242,0,0,1,1.479,1.185,4.769,4.769,0,0,1,.84,1.72,7.927,7.927,0,0,1,.263,2.057v.545c0,.162-.007.337-.02.528Zm4.718-1.925q-.04-.445-.121-.88a2.043,2.043,0,0,0-.4-.861,2.075,2.075,0,0,0-.506-.5,2.151,2.151,0,0,0-.941-.355c-.13-.013-.22-.02-.274-.02s-.135.007-.283.02a2.656,2.656,0,0,0-.516.112,2.349,2.349,0,0,0-.609.3,2.26,2.26,0,0,0-.576.6,2.683,2.683,0,0,0-.394.973c-.047.3-.078.5-.092.606Z" transform="translate(512.037 -190.096)" fill="#0066b3"/>
    <path id="Pfad_27" data-name="Pfad 27" d="M227.787,30.552V25.429c-.014-.634-.04-1.138-.081-1.508a2.939,2.939,0,0,0-.284-1,1.705,1.705,0,0,0-.324-.436,1.971,1.971,0,0,0-.466-.313c-.068-.026-.171-.061-.313-.1a1.819,1.819,0,0,0-.5-.061,2.114,2.114,0,0,0-.537.05,1.993,1.993,0,0,0-.84.416,2.412,2.412,0,0,0-.576.628,2.63,2.63,0,0,0-.314.749,5.586,5.586,0,0,0-.142.84c-.027.292-.04.591-.04.9v4.961H220.6V22.493q0-.709-.02-1.276t-.061-1.276h2.652v1.64q.182-.243.4-.486a2.642,2.642,0,0,1,.607-.526l.4-.243a3.82,3.82,0,0,1,1.134-.445,5.891,5.891,0,0,1,1.114-.1,4.2,4.2,0,0,1,1.266.162,3.815,3.815,0,0,1,.819.364,3.7,3.7,0,0,1,.4.294,3.053,3.053,0,0,1,.516.6,2.514,2.514,0,0,1,.374.709,4.374,4.374,0,0,1,.193.85q.061.466.081,1.053t.04,1.316v5.426Z" transform="translate(515.143 -190.08)" fill="#0066b3"/>
    <path id="Pfad_28" data-name="Pfad 28" d="M232.686,16.3v6.459c.081-.121.171-.25.273-.385a3.044,3.044,0,0,1,.5-.486,3.643,3.643,0,0,1,.85-.526,4.505,4.505,0,0,1,.79-.263,3.61,3.61,0,0,1,.637-.092c.182-.007.315-.011.4-.011a4.276,4.276,0,0,1,1.326.184,3.619,3.619,0,0,1,.861.385,2.667,2.667,0,0,1,.85.821,3.6,3.6,0,0,1,.455,1.1,7.645,7.645,0,0,1,.193,1.388c.027.506.041,1.07.041,1.689v5.2h-2.733V26.383q-.02-.526-.072-1.195a2.635,2.635,0,0,0-.354-1.174,1.591,1.591,0,0,0-.182-.273,1.4,1.4,0,0,0-.4-.315,1.424,1.424,0,0,0-.557-.192c-.182-.022-.3-.031-.354-.031a2.244,2.244,0,0,0-1.226.3,2.274,2.274,0,0,0-.718.688,2.458,2.458,0,0,0-.335.709,4.436,4.436,0,0,0-.151.779c-.027.263-.045.524-.051.78s-.009.494-.009.709v4.6h-2.754V16.3Z" transform="translate(518.444 -191.298)" fill="#0066b3"/>
    <path id="Pfad_29" data-name="Pfad 29" d="M244.475,19.75a7.009,7.009,0,0,1,1.246.111,5.549,5.549,0,0,1,1.184.355,4.424,4.424,0,0,1,1.386.891,5.543,5.543,0,0,1,.863,1.053,4.685,4.685,0,0,1,.474.983,5.935,5.935,0,0,1,.193.657,4.913,4.913,0,0,1,.142.9c.013.263.022.449.022.557a6.023,6.023,0,0,1-.3,1.953,5.358,5.358,0,0,1-.769,1.5,4.652,4.652,0,0,1-1.073,1.052,5.313,5.313,0,0,1-1.205.638,4.708,4.708,0,0,1-1.335.3q-.628.04-.85.04a7.068,7.068,0,0,1-1-.072,5.585,5.585,0,0,1-.983-.232,5.207,5.207,0,0,1-2.369-1.691,5.193,5.193,0,0,1-.819-1.519,6.444,6.444,0,0,1,.171-4.444,5.307,5.307,0,0,1,1.073-1.579,3.76,3.76,0,0,1,.638-.506c.181-.108.313-.19.394-.244a7.191,7.191,0,0,1,1.143-.464,5.714,5.714,0,0,1,1.772-.243m.02,2.025a2.323,2.323,0,0,0-.83.162,2.585,2.585,0,0,0-.466.232,1.874,1.874,0,0,0-.283.213,2.96,2.96,0,0,0-.749,1.083,4.35,4.35,0,0,0-.3,1.732,4.6,4.6,0,0,0,.254,1.6,3.571,3.571,0,0,0,.536,1.031,2.688,2.688,0,0,0,.456.437,1.843,1.843,0,0,0,.313.192,1.784,1.784,0,0,0,.657.212c.211.02.348.031.416.031a2.184,2.184,0,0,0,.992-.2,2.433,2.433,0,0,0,.629-.424,2.763,2.763,0,0,0,.717-1.145,5.218,5.218,0,0,0,.235-1.811,8.074,8.074,0,0,0-.174-1.338,2.591,2.591,0,0,0-.738-1.315,2.812,2.812,0,0,0-.668-.487,2.143,2.143,0,0,0-.992-.2" transform="translate(521.597 -190.091)" fill="#0066b3"/>
    <path id="Pfad_30" data-name="Pfad 30" d="M255.07,22.447c-.081-.027-.189-.057-.324-.09a2.058,2.058,0,0,0-.506-.051c-.081,0-.225.009-.435.031a2.419,2.419,0,0,0-.7.192,2.5,2.5,0,0,0-.749.516,2.361,2.361,0,0,0-.567,1,2.166,2.166,0,0,0-.142.506q-.04.263-.081.749c-.012.2-.02.385-.02.547v4.7H248.8V22.69q0-.769-.011-1.377c-.007-.4-.024-.863-.051-1.377h2.593v2.551a5.641,5.641,0,0,1,.181-.618c.054-.14.115-.279.182-.414a2.965,2.965,0,0,1,2.632-1.66,3.591,3.591,0,0,1,.375.02,3.721,3.721,0,0,1,.374.061Z" transform="translate(525.014 -190.075)" fill="#0066b3"/>
    <path id="Pfad_31" data-name="Pfad 31" d="M261.112,22.21c-.418-.121-.8-.223-1.145-.305a4.329,4.329,0,0,0-1.123-.1,2.81,2.81,0,0,0-1.375.294.919.919,0,0,0-.528.841.771.771,0,0,0,.061.273.629.629,0,0,0,.182.254,2,2,0,0,0,.568.313c.229.089.513.186.85.294s.64.2.869.283.418.155.567.223a2.828,2.828,0,0,1,1.519,1.548,2.791,2.791,0,0,1,.193.749c.02.223.03.374.03.456a3.81,3.81,0,0,1-.132.972,2.625,2.625,0,0,1-.5.971,3.714,3.714,0,0,1-.506.528,3.1,3.1,0,0,1-.506.354c-.162.088-.306.159-.435.213a2.579,2.579,0,0,1-.274.1,4.105,4.105,0,0,1-1.224.243c-.4.014-.659.019-.779.019-.3,0-.571-.008-.821-.03s-.493-.05-.729-.09-.479-.092-.729-.153-.524-.124-.819-.192l.14-2.308c.244.108.591.25,1.043.424a4.406,4.406,0,0,0,1.609.265,2.7,2.7,0,0,0,1.367-.3.928.928,0,0,0,.516-.83.737.737,0,0,0-.131-.445,1.3,1.3,0,0,0-.333-.315,2.666,2.666,0,0,0-.427-.223c-.148-.061-.283-.111-.4-.151l-.78-.274q-.373-.132-.728-.283a4.249,4.249,0,0,1-.668-.354,2.832,2.832,0,0,1-.6-.528,3,3,0,0,1-.506-.759,2.578,2.578,0,0,1-.223-1.145,3.16,3.16,0,0,1,.19-1.062,2.954,2.954,0,0,1,.721-1.062,3.33,3.33,0,0,1,1.02-.679A5.662,5.662,0,0,1,257.2,19.9a5.274,5.274,0,0,1,.861-.112c.236-.007.381-.011.435-.011a7.48,7.48,0,0,1,1.4.123c.431.081.9.175,1.4.283Z" transform="translate(526.929 -190.081)" fill="#0066b3"/>
    <path id="Pfad_32" data-name="Pfad 32" d="M265.205,20.67h2.49v2.065h-2.49v4.657a2.46,2.46,0,0,0,.374,1.266,1.4,1.4,0,0,0,1.246.5,2.518,2.518,0,0,0,.6-.061c.169-.04.293-.073.374-.1l.061,2.168c-.432.108-.779.181-1.043.223a4.753,4.753,0,0,1-.718.059,4.482,4.482,0,0,1-1.509-.223,3.013,3.013,0,0,1-.983-.547,2.542,2.542,0,0,1-.657-.891,4.7,4.7,0,0,1-.355-1.4c-.026-.27-.039-.506-.039-.71v-4.94h-2.045V20.67h2.045V18.546l2.652-.852Z" transform="translate(529.133 -190.81)" fill="#0066b3"/>
    <rect id="Rechteck_8" data-name="Rechteck 8" width="57.395" height="38.262" transform="translate(438 -196.997)" fill="#fff"/>
    <path id="Pfad_33" data-name="Pfad 33" d="M0,23.387v6.7H23.1l-1.508-6.7Z" transform="translate(438 -188.818)" fill="#f60"/>
    <path id="Pfad_34" data-name="Pfad 34" d="M48.55,30.083v-6.7H26.559c-.586,3.09-1.083,5.677-1.276,6.7Z" transform="translate(446.845 -188.818)" fill="#f60"/>
    <path id="Pfad_35" data-name="Pfad 35" d="M11.6,15.674,9.95,8.711H24L28.552,28.7h.193L31.61,15.894c1.446-5.811,1.991-7.182,10.132-7.182H47.6s-1.182,5.357-2.654,11.174c-.562,2.218-5.449,1.955-5.206-.116.026-.216.258-1.775.44-2.885.267-1.6-1.587-1.8-1.921-.216-.238,1.131-1.311,6.748-2.315,12.031H57.395V0H0V28.7H20.96L18.043,15.683Z" transform="translate(438 -196.999)" fill="#0066b3"/>
  </g>
</svg>
