<svg id="Gruppe_162" data-name="Gruppe 162" xmlns="http://www.w3.org/2000/svg" xmlns:xlink="http://www.w3.org/1999/xlink" width="63.995" height="66.886" viewBox="0 0 63.995 66.886">
  <defs>
    <clipPath id="clip-path">
      <rect id="Rechteck_102" data-name="Rechteck 102" width="63.995" height="66.886" fill="#ec6608"/>
    </clipPath>
  </defs>
  <g id="Gruppe_161" data-name="Gruppe 161" clip-path="url(#clip-path)">
    <path id="Pfad_156" data-name="Pfad 156" d="M32.523,0a5.589,5.589,0,0,1,1.656,1.222Q48.571,15.133,62.972,29.035a3.063,3.063,0,0,1,.929,1.313A2.2,2.2,0,0,1,62,33.183c-.867.062-1.74.029-2.611.031-1.581,0-1.581,0-1.581,1.614q0,12.8,0,25.6c0,1.284.008,2.569,0,3.853a2.308,2.308,0,0,1-2.616,2.6q-7.477,0-14.955,0c-1.778,0-2.621-.855-2.621-2.656q0-8.425.01-16.849c0-.51-.083-.717-.661-.712q-4.963.043-9.926,0c-.579-.005-.662.2-.66.712.017,5.573.011,11.146.01,16.719,0,2-.793,2.787-2.818,2.787H8.941c-1.92,0-2.747-.818-2.748-2.734q0-15.021,0-30.041c0-.893,0-.894-.863-.894-.936,0-1.872,0-2.808,0a2.272,2.272,0,0,1-2.353-1.4,2.3,2.3,0,0,1,.718-2.647Q7.8,22.506,14.7,15.832,22.237,8.55,29.775,1.267A5.759,5.759,0,0,1,31.478,0Zm29.2,30.973c-.206-.221-.3-.332-.405-.432q-14.449-13.946-28.89-27.9c-.376-.364-.557-.273-.877.037Q17.156,16.591,2.754,30.491c-.126.122-.339.2-.315.482,1.2,0,2.4,0,3.59,0A2.267,2.267,0,0,1,8.177,32.2a3.238,3.238,0,0,1,.271,1.591q0,15.053-.012,30.106c0,.571.113.773.741.769q7.118-.044,14.236,0c.593,0,.757-.146.755-.749-.024-5.616-.016-11.232-.013-16.849a2.321,2.321,0,0,1,2.654-2.63q5.159,0,10.318,0c1.88,0,2.72.834,2.721,2.7,0,5.616.008,11.232-.012,16.849,0,.546.147.685.687.683,4.68-.022,9.36-.008,14.041-.015,1.131,0,.988.181.989-1.011q.006-14.988,0-29.975c0-1.8.861-2.681,2.612-2.687,1.13,0,2.26,0,3.552,0" transform="translate(0)" fill="#ec6608"/>
  </g>
</svg>
