<svg id="Gruppe_158" data-name="Gruppe 158" xmlns="http://www.w3.org/2000/svg" xmlns:xlink="http://www.w3.org/1999/xlink" width="51.189" height="66.311" viewBox="0 0 51.189 66.311">
  <defs>
    <clipPath id="clip-path">
      <rect id="Rechteck_100" data-name="Rechteck 100" width="51.189" height="66.311" fill="#ec6608"/>
    </clipPath>
  </defs>
  <g id="Gruppe_157" data-name="Gruppe 157" clip-path="url(#clip-path)">
    <path id="Pfad_146" data-name="Pfad 146" d="M94.647,0c.285.259.582.507.854.779q6.3,6.291,12.6,12.58a1.932,1.932,0,0,1,.609,1.488q-.015,23.4-.01,46.8c0,2.955-1.71,4.654-4.663,4.654H71.019c-.989,0-1.464-.313-1.469-.966s.475-.976,1.458-.976h33.015c1.893,0,2.732-.829,2.732-2.71q0-22.754.018-45.508c0-.685-.211-.811-.837-.8-2.632.033-5.265.019-7.9.012-2.991-.008-4.685-1.713-4.685-4.7,0-2.676-.022-5.352.017-8.027.009-.6-.176-.7-.72-.692-3.042.026-6.085.008-9.127.017-.544,0-1.061-.029-1.3-.618s.1-.974.508-1.328Zm10.434,13.435L95.295,3.65c0,2.272,0,4.688,0,7.1a2.324,2.324,0,0,0,2.6,2.654c2.287.013,4.575,0,6.862,0,.145,0,.3.044.324.026" transform="translate(-57.517 0.001)" fill="#ec6608"/>
    <path id="Pfad_147" data-name="Pfad 147" d="M21.461,0a1.245,1.245,0,0,0,.16.184.935.935,0,0,1,.324,1.155.952.952,0,0,1-.979.6c-1.144,0-2.287,0-3.431,0H4.653c-1.839,0-2.681.842-2.681,2.7q0,23.629,0,47.258,0,4.888,0,9.775c0,1.848.846,2.69,2.687,2.691,1.187,0,2.374,0,3.561,0,.777,0,1.2.34,1.209.951s-.418.984-1.172.988c-1.359.006-2.719.019-4.078,0A4.168,4.168,0,0,1,.06,62.429c-.031-.386-.03-.776-.03-1.164C.028,42.621.053,23.977,0,5.333-.007,2.684.818.813,3.461,0Z" transform="translate(-0.001)" fill="#ec6608"/>
    <path id="Pfad_148" data-name="Pfad 148" d="M62.964,175.184q-8.088,0-16.176,0a5.2,5.2,0,0,1-.774-.033.867.867,0,0,1-.8-.935.878.878,0,0,1,.8-.94,3.77,3.77,0,0,1,.644-.032q16.337,0,32.675,0a3.792,3.792,0,0,1,.645.031.878.878,0,0,1,.8.938.868.868,0,0,1-.8.937,5.151,5.151,0,0,1-.774.033q-8.12,0-16.24,0" transform="translate(-37.391 -143.271)" fill="#ec6608"/>
    <path id="Pfad_149" data-name="Pfad 149" d="M62.989,123.4H79.3a4.9,4.9,0,0,1,.646.014.871.871,0,0,1,.812.79.909.909,0,0,1-.576,1.041,1.912,1.912,0,0,1-.828.1q-16.371,0-32.743,0a2.019,2.019,0,0,1-.767-.075.906.906,0,0,1-.635-1.007.878.878,0,0,1,.83-.845,5.123,5.123,0,0,1,.646-.013H62.989" transform="translate(-37.38 -102.049)" fill="#ec6608"/>
    <path id="Pfad_150" data-name="Pfad 150" d="M62.987,225.05H46.68a4.1,4.1,0,0,1-.646-.016.9.9,0,0,1-.831-.917.908.908,0,0,1,.766-.977,2.689,2.689,0,0,1,.644-.03q16.372,0,32.743,0a2.719,2.719,0,0,1,.644.03.961.961,0,0,1-.124,1.9,6.1,6.1,0,0,1-.647.011H62.987" transform="translate(-37.381 -184.507)" fill="#ec6608"/>
    <path id="Pfad_151" data-name="Pfad 151" d="M62.989,273.109H79.3a4.9,4.9,0,0,1,.646.014.872.872,0,0,1,.812.79.909.909,0,0,1-.576,1.041,1.912,1.912,0,0,1-.828.1q-16.371,0-32.743,0a2.019,2.019,0,0,1-.767-.075.906.906,0,0,1-.634-1.007.877.877,0,0,1,.83-.845,5.117,5.117,0,0,1,.646-.013H62.989" transform="translate(-37.379 -225.857)" fill="#ec6608"/>
  </g>
</svg>
