<svg id="Gruppe_480" data-name="Gruppe 480" xmlns="http://www.w3.org/2000/svg" xmlns:xlink="http://www.w3.org/1999/xlink" width="72.563" height="72.402" viewBox="0 0 72.563 72.402">
  <defs>
    <clipPath id="clip-path">
      <rect id="Rechteck_252" data-name="Rechteck 252" width="72.563" height="72.402" fill="#ec6608"/>
    </clipPath>
  </defs>
  <g id="Gruppe_479" data-name="Gruppe 479" clip-path="url(#clip-path)">
    <path id="Pfad_336" data-name="Pfad 336" d="M67.883,37.242c.77-.81,1.529-1.631,2.315-2.425.453-.458.878-1.073,1.673-.744s.688,1.037.688,1.7q0,8.361,0,16.721,0,9,0,18c0,1.628-.263,1.907-1.883,1.908q-17.35.011-34.7,0c-.665,0-1.382.043-1.683-.732s.283-1.221.749-1.685c1.737-1.728,3.478-3.452,5.279-5.239a2.264,2.264,0,0,0-1.693-.3Q23.9,64.424,9.167,64.431C3.2,64.426,0,61.209,0,55.23q0-21.752.006-43.5A8.348,8.348,0,0,1,7.447,3.16c1.57-.2,1.976.133,1.984,1.708.015,2.881.039,5.764-.014,8.644-.017.94.293,1.195,1.213,1.192q15.437-.043,30.875,0a2.383,2.383,0,0,0,1.836-.829Q49.426,7.739,55.55,1.641c2.178-2.176,3.759-2.186,5.911-.048.737.732,1.475,1.463,2.2,2.2,1.887,1.923,1.906,3.614.032,5.509-1.684,1.7-3.393,3.382-5.4,5.378h4.126c5.113,0,5.113,0,5.113,5.183V37l.349.242M37.809,70.225H66.7c3.824,0,3.793,0,3.733-3.89-.007-.463-.051-1.153-.051-1.153s-.663-.035-1.159-.047c-.81-.019-1.782.08-1.756-1.076s1.032-.983,1.819-1.029c.4-.023,1.161.013,1.161.013a22.875,22.875,0,0,0-.081-3.179s-1.114-.01-1.648-.056c-.686-.06-1.249-.255-1.267-1.031s.505-1.057,1.209-1.078c.33-.01.661-.021.991-.01.442.014.747-.127.743-.623-.007-.755.043-2.6.043-2.6a11.871,11.871,0,0,1-1.813.01c-.686-.1-1.217-.35-1.176-1.128.036-.681.519-.962,1.159-.995.283-.014,1.539-.037,1.818,0a9.346,9.346,0,0,1,0-.982,21.113,21.113,0,0,0-.06-2.173,7.529,7.529,0,0,1-1.811-.057c-.613-.105-1.113-.349-1.109-1.055.006-.773.529-1.047,1.219-1.084.33-.018,1.4-.019,1.735-.011,0,0,0-.1,0-.611q0-4.206,0-8.411l-.427-.223a8.756,8.756,0,0,1-.818,1.128q-6.7,6.731-13.415,13.438-1.8,1.8-3.6,3.61c-.56.562-1.177,1.132-1.918.366s-.1-1.364.436-1.917c.2-.2.4-.4.6-.6Q57.913,47.1,64.576,40.435a2.215,2.215,0,0,0,.867-1.675q-.05-10.417,0-20.835c0-.931-.373-1.09-1.175-1.076-2.219.039-4.44.06-6.657-.008a3.051,3.051,0,0,0-2.478,1.008c-6.448,6.51-12.954,12.964-19.4,19.473A8.334,8.334,0,0,1,31.974,39.7c-1.292.356-2.534.9-3.8,1.354-.28.085-.676.245-.676.245h2.07q9.208,0,18.416,0c.766,0,1.518.107,1.553,1.034s-.709,1.107-1.477,1.124c-.236,0-.472,0-.708,0q-13.6,0-27.2,0a9.126,9.126,0,0,1-1.13-.041,1.048,1.048,0,0,1,.046-2.095c.564-.043,2.889.008,3.445,0a7.236,7.236,0,0,0,.7-1.755c.769-2.526,1.721-5,2.6-7.488a3.6,3.6,0,0,1,.791-1.48c1.484-1.455,2.945-2.933,4.415-4.4.549-.548,1.164-.925,1.826-.237.616.641.214,1.212-.286,1.715-1.066,1.071-2.109,2.168-3.215,3.2-.565.524-.669.87-.045,1.446q1.821,1.68,3.506,3.505c.571.619.9.511,1.44-.037q10.24-10.3,20.534-20.546c.585-.583.733-.922.043-1.542a42.284,42.284,0,0,1-3.3-3.308c-.687-.77-1.092-.634-1.759.044-4.276,4.34-8.6,8.636-12.906,12.944-.3.3-.6.606-.926.874A1.03,1.03,0,0,1,34.468,22.8a22.481,22.481,0,0,1,1.669-1.734c1.347-1.283,2.713-2.544,4.071-3.815.252-.2.469-.393.469-.393H38.545c-9.161,0-18.322.024-27.482-.027-1.263-.007-1.678.278-1.66,1.62.078,5.952.043,11.905.022,17.858,0,.836.326,2.078-1.005,2.094-1.45.017-1.013-1.289-1.087-2.16-.036-.422-.007-.85-.007-1.275,0-9.449-.02-18.9.023-28.347.006-1.264-.414-1.334-1.382-.882C3.253,7.013,2.139,9.2,2.143,12.12q.026,18.851.016,37.7c0,.336-.191.763.267,1.009a7.94,7.94,0,0,1,3.91-2.182c.845-.158,1.03-.572,1.007-1.36-.053-1.746-.013-3.5-.015-5.243,0-.741.207-1.368,1.072-1.355s1.034.67,1.033,1.4c0,2.031,0,4.063,0,6.094,0,2.062,0,2.062-2.022,2.4a6.075,6.075,0,0,0-5.149,6.822c.455,2.9,2.91,4.856,6.216,4.863,9.822.019,24.413-.142,34.23.088a42.305,42.305,0,0,1,3.262-3.468c.709-.686,1.458-1.9,2.514-.854s-.251,1.745-.887,2.391c-3.143,3.187-6.323,6.338-9.79,9.8M62.919,6.591a1.516,1.516,0,0,0-.58-1.083q-.841-.851-1.69-1.7c-2.178-2.18-2.253-2.158-4.368.1a5.134,5.134,0,0,0-.612.725c1.224,1.164,3.025,3.012,4.224,4.2.192.19.583.532.583.532s2.436-2.344,2.442-2.78M54,6.037c-.508.572-1.007,1.12-1.489,1.683-.455.532-.322.438-.322.438,1.182,1.217,3.758,3.479,4.9,4.727a12.3,12.3,0,0,0,.867-.892c.363-.426.989-1.141.989-1.141-1.273-1.19-2.994-2.923-4.228-4.154-.163-.163-.34-.313-.721-.661M27.617,33.786c-1.325,2.487-1.316,2.79.259,4.208,1.368,1.231,2.3-.307,3.427-.369-1.292-1.345-2.49-2.591-3.686-3.839" transform="translate(0 0)" fill="#ec6608"/>
    <path id="Pfad_337" data-name="Pfad 337" d="M186.615,193.372c-1.745,0-3.489,0-5.234,0-.63,0-1.251-.006-1.544-.714-.273-.66.16-1.07.561-1.472q5.447-5.459,10.9-10.91c.4-.4.811-.832,1.469-.588.719.266.752.883.751,1.518,0,3.491-.022,6.983.01,10.474.011,1.195-.467,1.731-1.681,1.7-1.743-.043-3.489-.011-5.234-.011m-2.894-2.176c2.39,0,4.719,0,7.048,0,.317,0,.554-.144.554-.494.006-2.362,0-4.723,0-7.026l-7.605,7.523" transform="translate(-128.644 -128.549)" fill="#ec6608"/>
  </g>
</svg>
