<svg xmlns="http://www.w3.org/2000/svg" width="117.916" height="18.358" viewBox="0 0 117.916 18.358">
  <g id="Gruppe_538" data-name="Gruppe 538" transform="translate(-434 -5321.422)">
    <path id="Icon_fa-solid-star" data-name="Icon fa-solid-star" d="M12.193.645a1.149,1.149,0,0,0-2.065,0L7.823,5.388l-5.148.76A1.147,1.147,0,0,0,2.037,8.1l3.736,3.7L4.89,17.019a1.15,1.15,0,0,0,1.674,1.2l4.6-2.456,4.6,2.456a1.15,1.15,0,0,0,1.674-1.2L16.553,11.8l3.736-3.7a1.147,1.147,0,0,0-.638-1.95L14.5,5.388Z" transform="translate(432.302 5321.422)" fill="#ec6608"/>
    <path id="Icon_fa-solid-star-2" data-name="Icon fa-solid-star" d="M12.193.645a1.149,1.149,0,0,0-2.065,0L7.823,5.388l-5.148.76A1.147,1.147,0,0,0,2.037,8.1l3.736,3.7L4.89,17.019a1.15,1.15,0,0,0,1.674,1.2l4.6-2.456,4.6,2.456a1.15,1.15,0,0,0,1.674-1.2L16.553,11.8l3.736-3.7a1.147,1.147,0,0,0-.638-1.95L14.5,5.388Z" transform="translate(457.048 5321.422)" fill="#ec6608"/>
    <path id="Icon_fa-solid-star-3" data-name="Icon fa-solid-star" d="M12.193.645a1.149,1.149,0,0,0-2.065,0L7.823,5.388l-5.148.76A1.147,1.147,0,0,0,2.037,8.1l3.736,3.7L4.89,17.019a1.15,1.15,0,0,0,1.674,1.2l4.6-2.456,4.6,2.456a1.15,1.15,0,0,0,1.674-1.2L16.553,11.8l3.736-3.7a1.147,1.147,0,0,0-.638-1.95L14.5,5.388Z" transform="translate(481.795 5321.422)" fill="#ec6608"/>
    <path id="Icon_fa-solid-star-4" data-name="Icon fa-solid-star" d="M12.193.645a1.149,1.149,0,0,0-2.065,0L7.823,5.388l-5.148.76A1.147,1.147,0,0,0,2.037,8.1l3.736,3.7L4.89,17.019a1.15,1.15,0,0,0,1.674,1.2l4.6-2.456,4.6,2.456a1.15,1.15,0,0,0,1.674-1.2L16.553,11.8l3.736-3.7a1.147,1.147,0,0,0-.638-1.95L14.5,5.388Z" transform="translate(506.541 5321.422)" fill="#ec6608"/>
    <path id="Icon_fa-solid-star-5" data-name="Icon fa-solid-star" d="M12.193.645a1.149,1.149,0,0,0-2.065,0L7.823,5.388l-5.148.76A1.147,1.147,0,0,0,2.037,8.1l3.736,3.7L4.89,17.019a1.15,1.15,0,0,0,1.674,1.2l4.6-2.456,4.6,2.456a1.15,1.15,0,0,0,1.674-1.2L16.553,11.8l3.736-3.7a1.147,1.147,0,0,0-.638-1.95L14.5,5.388Z" transform="translate(531.287 5321.422)" fill="#ec6608"/>
  </g>
</svg>
