<svg xmlns="http://www.w3.org/2000/svg" width="17.097" height="17.097" viewBox="0 0 17.097 17.097">
  <g id="Icon_feather-external-link" data-name="Icon feather-external-link" transform="translate(-3 -3)">
    <path id="Pfad_297" data-name="Pfad 297" d="M14.968,22.032h-9.4A2.567,2.567,0,0,1,3,19.468v-9.4A2.567,2.567,0,0,1,5.565,7.5h5.129a.855.855,0,0,1,0,1.71H5.565a.856.856,0,0,0-.855.855v9.4a.856.856,0,0,0,.855.855h9.4a.856.856,0,0,0,.855-.855V14.339a.855.855,0,1,1,1.71,0v5.129A2.567,2.567,0,0,1,14.968,22.032Z" transform="translate(0 -1.935)" fill="#fff"/>
    <path id="Pfad_298" data-name="Pfad 298" d="M26.984,9.839a.855.855,0,0,1-.855-.855V4.71H21.855a.855.855,0,1,1,0-1.71h5.129a.855.855,0,0,1,.855.855V8.984A.855.855,0,0,1,26.984,9.839Z" transform="translate(-7.742 0)" fill="#fff"/>
    <path id="Pfad_299" data-name="Pfad 299" d="M14.355,14.113a.855.855,0,0,1-.6-1.459l9.4-9.4a.855.855,0,0,1,1.209,1.209l-9.4,9.4A.852.852,0,0,1,14.355,14.113Z" transform="translate(-4.516)" fill="#fff"/>
  </g>
</svg>
