<svg xmlns="http://www.w3.org/2000/svg" width="26.896" height="31.606" viewBox="0 0 26.896 31.606">
  <path id="Icon_simple-xing" data-name="Icon simple-xing" d="M24.279,0a1.335,1.335,0,0,0-1.221.869S13.241,18.284,12.916,18.854c.02.032,6.478,11.883,6.478,11.883a1.42,1.42,0,0,0,1.273.869h4.549a.679.679,0,0,0,.61-.29.721.721,0,0,0-.012-.706L19.388,18.869a.029.029,0,0,1,0-.029L29.483,1a.721.721,0,0,0,.008-.7.673.673,0,0,0-.6-.291ZM5.131,6.242a.7.7,0,0,0-.623.284.709.709,0,0,0,.026.7l3.082,5.334c.005.013.005.021,0,.028l-4.84,8.551a.685.685,0,0,0,0,.7.656.656,0,0,0,.593.308H7.927a1.4,1.4,0,0,0,1.244-.878l4.917-8.7L10.957,7.089a1.4,1.4,0,0,0-1.267-.868H5.131v.021Z" transform="translate(-2.682)" fill="#fff"/>
</svg>
