<svg id="Gruppe_524" data-name="Gruppe 524" xmlns="http://www.w3.org/2000/svg" xmlns:xlink="http://www.w3.org/1999/xlink" width="91.647" height="61.818" viewBox="0 0 91.647 61.818">
  <defs>
    <clipPath id="clip-path">
      <rect id="Rechteck_20" data-name="Rechteck 20" width="91.647" height="61.818" fill="#ec6608"/>
    </clipPath>
  </defs>
  <g id="Gruppe_36" data-name="Gruppe 36" clip-path="url(#clip-path)">
    <path id="Pfad_38" data-name="Pfad 38" d="M75.2,14.458h9.9a6.369,6.369,0,0,1,6.362,6.362V39.981h2.915V20.819a9.287,9.287,0,0,0-9.276-9.276h-9.8a4.771,4.771,0,0,0-.1.95Z" transform="translate(-31.364 -4.814)" fill="#ec6608"/>
    <path id="Pfad_39" data-name="Pfad 39" d="M60.091,49.377a6.369,6.369,0,0,1-6.362,6.362H10.877l-7.962,5.4V20.819a6.369,6.369,0,0,1,6.362-6.362H40.918V12.493a7.633,7.633,0,0,1,.065-.95H9.276A9.287,9.287,0,0,0,0,20.819V66.632l11.771-7.978H53.729a9.287,9.287,0,0,0,9.276-9.276V42.9H60.091Z" transform="translate(0 -4.814)" fill="#ec6608"/>
    <path id="Pfad_40" data-name="Pfad 40" d="M113.292,0H77.921a7.686,7.686,0,0,0-7.614,6.729h2.945a4.772,4.772,0,0,1,4.669-3.814h35.371a4.77,4.77,0,0,1,4.764,4.764V39.2l-5.946-4.03H92.33v2.915h18.885l9.756,6.613V7.679A7.687,7.687,0,0,0,113.292,0" transform="translate(-29.324)" fill="#ec6608"/>
    <rect id="Rechteck_19" data-name="Rechteck 19" width="2.915" height="2.915" transform="translate(60.091 35.166)" fill="#ec6608"/>
    <path id="Pfad_41" data-name="Pfad 41" d="M70.2,14.458h2.915V12.493a4.771,4.771,0,0,1,.1-.95H70.261a7.626,7.626,0,0,0-.065.95Z" transform="translate(-29.278 -4.814)" fill="#ec6608"/>
    <path id="Pfad_42" data-name="Pfad 42" d="M57.672,36.251H24.831a1.457,1.457,0,1,1,0-2.915H57.672a1.457,1.457,0,1,1,0,2.915" transform="translate(-9.749 -12.155)" fill="#ec6608"/>
    <path id="Pfad_43" data-name="Pfad 43" d="M57.617,51.081H24.776a1.457,1.457,0,0,1,0-2.915H57.617a1.457,1.457,0,0,1,0,2.915" transform="translate(-9.726 -18.341)" fill="#ec6608"/>
    <path id="Pfad_44" data-name="Pfad 44" d="M57.617,65.27H24.776a1.457,1.457,0,0,1,0-2.915H57.617a1.457,1.457,0,0,1,0,2.915" transform="translate(-9.726 -24.259)" fill="#ec6608"/>
  </g>
</svg>
