<svg id="Gruppe_482" data-name="Gruppe 482" xmlns="http://www.w3.org/2000/svg" xmlns:xlink="http://www.w3.org/1999/xlink" width="77.096" height="75.605" viewBox="0 0 77.096 75.605">
  <defs>
    <clipPath id="clip-path">
      <rect id="Rechteck_253" data-name="Rechteck 253" width="77.096" height="75.605" fill="#ec6608"/>
    </clipPath>
  </defs>
  <g id="Gruppe_481" data-name="Gruppe 481" clip-path="url(#clip-path)">
    <path id="Pfad_338" data-name="Pfad 338" d="M64.469,32.708c-2.069,3.824-4.051,4.9-7.678,4.314a8.475,8.475,0,0,1-7.411-7.072A15.469,15.469,0,0,1,49.4,25.3c.06-.453.4-1.052-.393-1.2-.6-.116-1.273-.6-1.8.107a17.047,17.047,0,0,1-4.286,4.069c.659.212,1.061.344,1.465.472.764.241,1.515.577,1.2,1.552-.3.939-1.055.867-1.863.61a30,30,0,0,0-11.448-1.277,28.907,28.907,0,0,0-6.2,1.163c-.854.257-1.889.743-2.244-.549-.322-1.171.74-1.338,1.549-1.6.285-.091.566-.194.87-.3-.186-.61-.776-.765-1.173-1.108-4.954-4.291-6.8-9.695-5.1-15.976A14.356,14.356,0,0,1,32.378.211c6.508-.987,11.681,1.526,15.354,7.025a8.651,8.651,0,0,1,.592,1.047,1.1,1.1,0,0,1-.379,1.574A1.049,1.049,0,0,1,46.4,9.421c-.257-.369-.451-.783-.7-1.162A13.07,13.07,0,1,0,28.687,26.914a4.564,4.564,0,0,0,2.884.531,22.117,22.117,0,0,1,6.3,0,4.386,4.386,0,0,0,2.879-.546,12.9,12.9,0,0,0,6.868-9.7c.071-.446.114-.9.185-1.343a1.026,1.026,0,0,1,1.117-.989,1.062,1.062,0,0,1,1.07,1.2,16.26,16.26,0,0,1-.694,3.993c-.138.536-.863,1.235-.275,1.586a2.6,2.6,0,0,0,2.563.24c1.807-.863,3.68-1.6,5.544-2.332a21.3,21.3,0,0,1,4.339-1.22c2.495-.415,3.7.423,4.143,2.912a20.026,20.026,0,0,1-.183,7.191,2.769,2.769,0,0,0,.689,2.715,16.537,16.537,0,0,1,3.7,6.319,2.706,2.706,0,0,0,2.159,2.019c.585.135,1.153.345,1.724.536,2.418.811,3.373,2.134,3.386,4.7.008,1.507.018,3.013,0,4.52-.029,2.122-.965,3.739-2.977,4.2a12.708,12.708,0,0,0-8.339,5.7c-1.477,2.269-3.863,3.78-6.243,5.113a2.569,2.569,0,0,0-1.478,2.059c-.316,2.183-.775,4.347-1.2,6.513-.392,2-1.266,2.725-3.313,2.753-1.556.022-3.113.038-4.668-.012A2.745,2.745,0,0,1,46,73.207c-.368-1.335.022-3.243-1.078-3.891-.962-.567-2.613.092-3.96.109-2.157.028-4.318.042-6.47-.08-.935-.053-1.253.247-1.361,1.1a26.764,26.764,0,0,1-.493,2.663,2.715,2.715,0,0,1-2.926,2.465q-2.483.068-4.969,0a2.634,2.634,0,0,1-2.85-2.355q-.735-3.383-1.329-6.8a2,2,0,0,0-1.056-1.505C11.95,60.371,8.449,53.57,8.432,44.85a5.973,5.973,0,0,0,0-.6c-.034-.323.189-.772-.219-.932-.459-.18-.542.325-.722.586a9.759,9.759,0,0,1-2.766,2.733,6.331,6.331,0,0,1-3.261,1.028C.684,47.688.035,47.39,0,46.506c-.031-.8.523-1.131,1.258-1.207A5.615,5.615,0,0,0,5.412,42.89c-.869-.334-1.71-.585-2.484-.971-1.17-.583-2.15-1.4-2.049-2.873a3.5,3.5,0,0,1,2.13-3.054,3.121,3.121,0,0,1,3.488.664,5.925,5.925,0,0,1,1.979,4.236,2.252,2.252,0,0,0,.517-1.4A21.167,21.167,0,0,1,18.956,25.4c.71-.44,1.475-.929,2.075.038s-.17,1.465-.894,1.875C7.534,34.444,7.13,55.9,21.044,63.2a2.935,2.935,0,0,1,1.651,2.329c.346,2.129.852,4.232,1.187,6.363.172,1.091.578,1.592,1.748,1.471,1.488-.154,3.282.542,4.405-.272C31.13,72.3,30.787,70.4,31.121,69c.407-1.706.867-2.138,2.6-1.97a46.321,46.321,0,0,0,11.26-.261,1.931,1.931,0,0,1,2.445,1.8c.23,1.284.522,2.558.718,3.848.12.792.574.946,1.261.933,1.3-.025,2.613-.061,3.914.011.92.051,1.226-.379,1.368-1.188.417-2.373.91-4.732,1.307-7.107a2.957,2.957,0,0,1,1.643-2.331,21.727,21.727,0,0,0,8.726-8.083,3.932,3.932,0,0,1,2.33-1.785c1.484-.461,2.953-.974,4.441-1.42a2.193,2.193,0,0,0,1.709-2.341c0-1.507-.011-3.013,0-4.52a2.216,2.216,0,0,0-1.827-2.406c-.339-.087-.66-.255-1-.32a5.42,5.42,0,0,1-4.561-4.2,12.646,12.646,0,0,0-2.983-4.952m-.96-8.323c0-.651.046-1.306-.009-1.953-.162-1.929-.479-2.176-2.351-1.741a39.163,39.163,0,0,0-6.237,2.166c-3.335,1.4-3.6,1.821-3.439,5.508a6.436,6.436,0,0,0,6.949,6.494,3.548,3.548,0,0,0,3.595-2.4,21.917,21.917,0,0,0,1.492-8.073M5.414,40.461c.391.035.7.009.592-.438-.238-.961-.676-1.819-1.765-1.965a.907.907,0,0,0-1.03,1.019c.246,1.134,1.444,1.009,2.2,1.384" transform="translate(0 0)" fill="#ec6608"/>
    <path id="Pfad_339" data-name="Pfad 339" d="M193.659,137.14a3.631,3.631,0,0,1-3.709-3.379c-.013-.683.2-1.225.906-1.345a1.036,1.036,0,0,1,1.28.956c.124.848.514,1.468,1.386,1.5.973.041,1.366-.642,1.53-1.525a1.02,1.02,0,0,1,1.292-.925c.781.165.962.768.893,1.5a3.684,3.684,0,0,1-3.577,3.215" transform="translate(-132.532 -92.375)" fill="#ec6608"/>
    <path id="Pfad_340" data-name="Pfad 340" d="M96.743,32.231h3.677q.745,0,.759.526c.009.361-.254.553-.759.553-1.249,0-2.5,0-3.748,0-.191,0-.268.049-.291.242a7.087,7.087,0,0,0,0,1.694c.022.185.1.231.274.23q1.968-.01,3.936,0a.541.541,0,0,1,.584.495c0,.013,0,.027,0,.04a.548.548,0,0,1-.553.542H96.736A4.866,4.866,0,0,0,97.854,38.3a3.813,3.813,0,0,0,5.653-.092c.041-.046.083-.095.129-.138a.533.533,0,0,1,.75-.042.524.524,0,0,1,.07.738l-.028.031a5.193,5.193,0,0,1-1.72,1.318,4.941,4.941,0,0,1-6.117-1.628,6.227,6.227,0,0,1-.923-1.726.279.279,0,0,0-.324-.224h0c-.359.015-.719.007-1.078,0-.388,0-.634-.219-.63-.546a.551.551,0,0,1,.568-.534l.051,0c.3,0,.593-.007.89,0,.146,0,.186-.045.167-.187a6.381,6.381,0,0,1,0-1.773c.027-.187-.053-.208-.2-.2-.3.009-.593.007-.89,0a.541.541,0,1,1,.008-1.076c.368-.005.738-.015,1.105,0,.208.011.289-.069.359-.257a5.784,5.784,0,0,1,2.657-3.2,4.874,4.874,0,0,1,6.08,1.189.538.538,0,0,1-.767.754.519.519,0,0,1-.038-.044,4.129,4.129,0,0,0-2.07-1.3,3.933,3.933,0,0,0-4.18,1.68,4.734,4.734,0,0,0-.621,1.173" transform="translate(-65.316 -19.667)" fill="#ec6608"/>
    <path id="Pfad_341" data-name="Pfad 341" d="M99.93,40.192a5.239,5.239,0,0,1-4.282-2.217,6.5,6.5,0,0,1-.961-1.8l-.007-.02h-.023c-.3.013-.6.01-.894.006l-.2,0a.969.969,0,0,1-.7-.27.8.8,0,0,1-.225-.583.856.856,0,0,1,.853-.832h.027l.058,0h.065c.218,0,.436-.005.655,0a6.736,6.736,0,0,1,0-1.553c-.233.005-.485,0-.766,0a.844.844,0,0,1-.907-.75.844.844,0,0,1,.918-.93l.133,0c.318,0,.647-.01.974.007a.257.257,0,0,0,.037,0c0-.007.01-.027.023-.061A6.069,6.069,0,0,1,97.5,27.82a5.188,5.188,0,0,1,6.461,1.26.815.815,0,0,1,.223.576.84.84,0,0,1-.84.832h-.008a.834.834,0,0,1-.592-.251.7.7,0,0,1-.061-.069,3.8,3.8,0,0,0-1.909-1.189,3.64,3.64,0,0,0-3.85,1.553,4.54,4.54,0,0,0-.421.706h3.221c.939,0,1.055.573,1.061.82a.779.779,0,0,1-.212.579,1.143,1.143,0,0,1-.849.284h-.952c-.93,0-1.86,0-2.791-.005a6.8,6.8,0,0,0,0,1.562c1.3-.007,2.617-.006,3.916,0a.841.841,0,0,1,.884.772c0,.02,0,.041,0,.062a.85.85,0,0,1-.849.848h-.008l-.045,0H96.494a4.6,4.6,0,0,0,.877,1.241,3.509,3.509,0,0,0,4.966.176,3.337,3.337,0,0,0,.245-.253l.031-.034c.038-.042.076-.085.118-.124a.83.83,0,0,1,1.158-.048.826.826,0,0,1,.1,1.156c-.014.017-.028.033-.042.047a5.439,5.439,0,0,1-1.809,1.382,5.242,5.242,0,0,1-2.211.49m-4.666-4.2a5.906,5.906,0,0,0,.871,1.625,4.64,4.64,0,0,0,5.749,1.537,4.853,4.853,0,0,0,1.618-1.24l.258.165-.233-.193a.221.221,0,0,0-.03-.312.233.233,0,0,0-.333.011c-.047.045-.073.076-.1.106l-.03.033a3.968,3.968,0,0,1-.284.293,4.118,4.118,0,0,1-5.814-.2,5.191,5.191,0,0,1-1.181-1.859l-.149-.406h4.321a.272.272,0,0,0,.177-.07.242.242,0,0,0,.073-.173.246.246,0,0,0-.259-.231c-1.332-.006-2.655-.006-3.96,0h-.005a.516.516,0,0,1-.571-.5,7.4,7.4,0,0,1,0-1.765.529.529,0,0,1,.592-.509c.933.007,1.865.006,2.8.005h.952c.286,0,.386-.071.416-.1a.173.173,0,0,0,.041-.141c0-.08-.006-.231-.457-.231H96.045v-.3l-.282-.1a5.026,5.026,0,0,1,.661-1.248,4.246,4.246,0,0,1,4.493-1.8,4.417,4.417,0,0,1,2.23,1.392l.025.029a.234.234,0,0,0,.166.07.2.2,0,0,0,.167-.067.235.235,0,0,0,0-.333,4.592,4.592,0,0,0-5.721-1.135,5.47,5.47,0,0,0-2.514,3.035.614.614,0,0,1-.663.462c-.306-.016-.624-.011-.932-.006l-.173,0-.021,0a.229.229,0,0,0-.054,0,.239.239,0,0,0-.125.424.234.234,0,0,0,.176.051l.02,0h.02c.327.008.613.008.873,0a.516.516,0,0,1,.415.141.492.492,0,0,1,.1.408,6.073,6.073,0,0,0,0,1.688.475.475,0,0,1-.1.393.481.481,0,0,1-.378.138c-.262-.007-.527,0-.793,0h-.107l-.022,0a.252.252,0,0,0-.275.24.2.2,0,0,0,.053.147.391.391,0,0,0,.277.088l.2,0c.276,0,.562.006.839,0l.015,0a.582.582,0,0,1,.642.444m-.616.141h0v0Z" transform="translate(-64.619 -18.977)" fill="#ec6608"/>
  </g>
</svg>
